<mxfile host="Electron" modified="2023-09-28T03:05:42.887Z" agent="Mozilla/5.0 (Windows NT 10.0; Win64; x64) AppleWebKit/537.36 (KHTML, like Gecko) draw.io/21.5.0 Chrome/112.0.5615.204 Electron/24.5.1 Safari/537.36" etag="H-6huqsjxD3j-OkBqQij" version="21.5.0" type="device" pages="3">
  <diagram name="Context Diagram" id="c2Z-SUQECN3qPoPqi_B5">
    <mxGraphModel dx="2156" dy="794" grid="1" gridSize="10" guides="1" tooltips="1" connect="1" arrows="1" fold="1" page="1" pageScale="1" pageWidth="827" pageHeight="1169" math="0" shadow="0">
      <root>
        <mxCell id="0" />
        <mxCell id="1" parent="0" />
        <mxCell id="NW6wiiUCip5BpD0b3H5U-5" style="edgeStyle=orthogonalEdgeStyle;rounded=1;orthogonalLoop=1;jettySize=auto;html=1;entryX=1;entryY=0.5;entryDx=0;entryDy=0;entryPerimeter=0;dashed=1;dashPattern=8 8;" parent="1" target="NW6wiiUCip5BpD0b3H5U-2" edge="1">
          <mxGeometry relative="1" as="geometry">
            <mxPoint x="720" y="409.40999999999997" as="sourcePoint" />
            <mxPoint x="420" y="409.40999999999997" as="targetPoint" />
            <Array as="points" />
          </mxGeometry>
        </mxCell>
        <mxCell id="NW6wiiUCip5BpD0b3H5U-6" value="Simulates Insurance Quote" style="edgeLabel;html=1;align=center;verticalAlign=middle;resizable=0;points=[];" parent="NW6wiiUCip5BpD0b3H5U-5" vertex="1" connectable="0">
          <mxGeometry x="-0.26" y="1" relative="1" as="geometry">
            <mxPoint x="-26" y="-1" as="offset" />
          </mxGeometry>
        </mxCell>
        <object placeholders="1" c4Name="Customer" c4Type="Person" c4Description="A customer who wants to purchase a insurance offer" label="&lt;font style=&quot;font-size: 16px&quot;&gt;&lt;b&gt;%c4Name%&lt;/b&gt;&lt;/font&gt;&lt;div&gt;[%c4Type%]&lt;/div&gt;&lt;br&gt;&lt;div&gt;&lt;font style=&quot;font-size: 11px&quot;&gt;&lt;font color=&quot;#cccccc&quot;&gt;%c4Description%&lt;/font&gt;&lt;/div&gt;" id="NW6wiiUCip5BpD0b3H5U-1">
          <mxCell style="html=1;fontSize=11;dashed=0;whiteSpace=wrap;fillColor=#083F75;strokeColor=#06315C;fontColor=#ffffff;shape=mxgraph.c4.person2;align=center;metaEdit=1;points=[[0.5,0,0],[1,0.5,0],[1,0.75,0],[0.75,1,0],[0.5,1,0],[0.25,1,0],[0,0.75,0],[0,0.5,0]];resizable=0;" parent="1" vertex="1">
            <mxGeometry x="710" y="290" width="200" height="180" as="geometry" />
          </mxCell>
        </object>
        <mxCell id="NW6wiiUCip5BpD0b3H5U-7" value="Sends leads" style="edgeStyle=orthogonalEdgeStyle;rounded=0;orthogonalLoop=1;jettySize=auto;html=1;entryX=0.5;entryY=0;entryDx=0;entryDy=0;entryPerimeter=0;dashed=1;dashPattern=8 8;" parent="1" source="NW6wiiUCip5BpD0b3H5U-2" target="NW6wiiUCip5BpD0b3H5U-4" edge="1">
          <mxGeometry relative="1" as="geometry" />
        </mxCell>
        <object placeholders="1" c4Name="BFF System" c4Type="Software System" c4Description="Allows customer to view offers, simulates a insurance quote and make payments and allows administrator do create, update and delete products" label="&lt;font style=&quot;font-size: 16px&quot;&gt;&lt;b&gt;%c4Name%&lt;/b&gt;&lt;/font&gt;&lt;div&gt;[%c4Type%]&lt;/div&gt;&lt;br&gt;&lt;div&gt;&lt;font style=&quot;font-size: 11px&quot;&gt;&lt;font color=&quot;#cccccc&quot;&gt;%c4Description%&lt;/font&gt;&lt;/div&gt;" id="NW6wiiUCip5BpD0b3H5U-2">
          <mxCell style="rounded=1;whiteSpace=wrap;html=1;labelBackgroundColor=none;fillColor=#1061B0;fontColor=#ffffff;align=center;arcSize=10;strokeColor=#0D5091;metaEdit=1;resizable=0;points=[[0.25,0,0],[0.5,0,0],[0.75,0,0],[1,0.25,0],[1,0.5,0],[1,0.75,0],[0.75,1,0],[0.5,1,0],[0.25,1,0],[0,0.75,0],[0,0.5,0],[0,0.25,0]];" parent="1" vertex="1">
            <mxGeometry x="280" y="350" width="240" height="120" as="geometry" />
          </mxCell>
        </object>
        <object placeholders="1" c4Name="E-mail System" c4Type="Software System" c4Description="Heroku&#39;s e-mail system" label="&lt;font style=&quot;font-size: 16px&quot;&gt;&lt;b&gt;%c4Name%&lt;/b&gt;&lt;/font&gt;&lt;div&gt;[%c4Type%]&lt;/div&gt;&lt;br&gt;&lt;div&gt;&lt;font style=&quot;font-size: 11px&quot;&gt;&lt;font color=&quot;#cccccc&quot;&gt;%c4Description%&lt;/font&gt;&lt;/div&gt;" id="NW6wiiUCip5BpD0b3H5U-3">
          <mxCell style="rounded=1;whiteSpace=wrap;html=1;labelBackgroundColor=none;fillColor=#8C8496;fontColor=#ffffff;align=center;arcSize=10;strokeColor=#736782;metaEdit=1;resizable=0;points=[[0.25,0,0],[0.5,0,0],[0.75,0,0],[1,0.25,0],[1,0.5,0],[1,0.75,0],[0.75,1,0],[0.5,1,0],[0.25,1,0],[0,0.75,0],[0,0.5,0],[0,0.25,0]];" parent="1" vertex="1">
            <mxGeometry x="120" y="760" width="240" height="120" as="geometry" />
          </mxCell>
        </object>
        <mxCell id="3RraeuA3H03tlqY5g8hi-2" style="edgeStyle=orthogonalEdgeStyle;rounded=1;orthogonalLoop=1;jettySize=auto;html=1;dashed=1;dashPattern=8 8;" parent="1" source="NW6wiiUCip5BpD0b3H5U-4" target="3RraeuA3H03tlqY5g8hi-1" edge="1">
          <mxGeometry relative="1" as="geometry" />
        </mxCell>
        <mxCell id="3RraeuA3H03tlqY5g8hi-3" value="Sends WhatsApp Message" style="edgeLabel;html=1;align=center;verticalAlign=middle;resizable=0;points=[];" parent="3RraeuA3H03tlqY5g8hi-2" vertex="1" connectable="0">
          <mxGeometry x="-0.3577" y="-1" relative="1" as="geometry">
            <mxPoint x="40" y="-21" as="offset" />
          </mxGeometry>
        </mxCell>
        <object placeholders="1" c4Name="Lead System" c4Type="Software System" c4Description="Reads customer&#39;s leads from Redis, analyzes and send new offers" label="&lt;font style=&quot;font-size: 16px&quot;&gt;&lt;b&gt;%c4Name%&lt;/b&gt;&lt;/font&gt;&lt;div&gt;[%c4Type%]&lt;/div&gt;&lt;br&gt;&lt;div&gt;&lt;font style=&quot;font-size: 11px&quot;&gt;&lt;font color=&quot;#cccccc&quot;&gt;%c4Description%&lt;/font&gt;&lt;/div&gt;" id="NW6wiiUCip5BpD0b3H5U-4">
          <mxCell style="rounded=1;whiteSpace=wrap;html=1;labelBackgroundColor=none;fillColor=#1061B0;fontColor=#ffffff;align=center;arcSize=10;strokeColor=#0D5091;metaEdit=1;resizable=0;points=[[0.25,0,0],[0.5,0,0],[0.75,0,0],[1,0.25,0],[1,0.5,0],[1,0.75,0],[0.75,1,0],[0.5,1,0],[0.25,1,0],[0,0.75,0],[0,0.5,0],[0,0.25,0]];" parent="1" vertex="1">
            <mxGeometry x="280" y="560" width="240" height="120" as="geometry" />
          </mxCell>
        </object>
        <mxCell id="NW6wiiUCip5BpD0b3H5U-14" style="edgeStyle=orthogonalEdgeStyle;rounded=1;orthogonalLoop=1;jettySize=auto;html=1;dashed=1;dashPattern=8 8;exitX=0.5;exitY=1;exitDx=0;exitDy=0;exitPerimeter=0;" parent="1" source="NW6wiiUCip5BpD0b3H5U-4" target="NW6wiiUCip5BpD0b3H5U-3" edge="1">
          <mxGeometry relative="1" as="geometry">
            <mxPoint x="400" y="690" as="sourcePoint" />
          </mxGeometry>
        </mxCell>
        <mxCell id="NW6wiiUCip5BpD0b3H5U-16" value="Sends processed leads&lt;br&gt;[SMTP]" style="edgeLabel;html=1;align=center;verticalAlign=middle;resizable=0;points=[];" parent="NW6wiiUCip5BpD0b3H5U-14" vertex="1" connectable="0">
          <mxGeometry x="-0.25" y="1" relative="1" as="geometry">
            <mxPoint x="-60" y="-21" as="offset" />
          </mxGeometry>
        </mxCell>
        <mxCell id="NW6wiiUCip5BpD0b3H5U-12" style="edgeStyle=orthogonalEdgeStyle;rounded=1;orthogonalLoop=1;jettySize=auto;html=1;entryX=0;entryY=0.5;entryDx=0;entryDy=0;entryPerimeter=0;dashed=1;dashPattern=8 8;" parent="1" source="NW6wiiUCip5BpD0b3H5U-11" target="NW6wiiUCip5BpD0b3H5U-2" edge="1">
          <mxGeometry relative="1" as="geometry">
            <Array as="points">
              <mxPoint x="180" y="410" />
              <mxPoint x="180" y="410" />
            </Array>
          </mxGeometry>
        </mxCell>
        <mxCell id="NW6wiiUCip5BpD0b3H5U-13" value="Manages Products" style="edgeLabel;html=1;align=center;verticalAlign=middle;resizable=0;points=[];" parent="NW6wiiUCip5BpD0b3H5U-12" vertex="1" connectable="0">
          <mxGeometry x="-0.559" y="-3" relative="1" as="geometry">
            <mxPoint x="39" y="-3" as="offset" />
          </mxGeometry>
        </mxCell>
        <object placeholders="1" c4Name="Administrator" c4Type="Person" c4Description="A customer who wants to purchase a insurance offer" label="&lt;font style=&quot;font-size: 16px&quot;&gt;&lt;b&gt;%c4Name%&lt;/b&gt;&lt;/font&gt;&lt;div&gt;[%c4Type%]&lt;/div&gt;&lt;br&gt;&lt;div&gt;&lt;font style=&quot;font-size: 11px&quot;&gt;&lt;font color=&quot;#cccccc&quot;&gt;%c4Description%&lt;/font&gt;&lt;/div&gt;" id="NW6wiiUCip5BpD0b3H5U-11">
          <mxCell style="html=1;fontSize=11;dashed=0;whiteSpace=wrap;fillColor=#083F75;strokeColor=#06315C;fontColor=#ffffff;shape=mxgraph.c4.person2;align=center;metaEdit=1;points=[[0.5,0,0],[1,0.5,0],[1,0.75,0],[0.75,1,0],[0.5,1,0],[0.25,1,0],[0,0.75,0],[0,0.5,0]];resizable=0;" parent="1" vertex="1">
            <mxGeometry x="-110" y="280" width="200" height="180" as="geometry" />
          </mxCell>
        </object>
        <object placeholders="1" c4Name="WhatsApp System" c4Type="Software System" c4Description="WhatsApp API System" label="&lt;font style=&quot;font-size: 16px&quot;&gt;&lt;b&gt;%c4Name%&lt;/b&gt;&lt;/font&gt;&lt;div&gt;[%c4Type%]&lt;/div&gt;&lt;br&gt;&lt;div&gt;&lt;font style=&quot;font-size: 11px&quot;&gt;&lt;font color=&quot;#cccccc&quot;&gt;%c4Description%&lt;/font&gt;&lt;/div&gt;" id="3RraeuA3H03tlqY5g8hi-1">
          <mxCell style="rounded=1;whiteSpace=wrap;html=1;labelBackgroundColor=none;fillColor=#8C8496;fontColor=#ffffff;align=center;arcSize=10;strokeColor=#736782;metaEdit=1;resizable=0;points=[[0.25,0,0],[0.5,0,0],[0.75,0,0],[1,0.25,0],[1,0.5,0],[1,0.75,0],[0.75,1,0],[0.5,1,0],[0.25,1,0],[0,0.75,0],[0,0.5,0],[0,0.25,0]];" parent="1" vertex="1">
            <mxGeometry x="450" y="760" width="240" height="120" as="geometry" />
          </mxCell>
        </object>
      </root>
    </mxGraphModel>
  </diagram>
  <diagram id="bg3AGzGqW7kB186zKMVl" name="Container Diagram">
    <mxGraphModel dx="3520" dy="3297" grid="1" gridSize="10" guides="1" tooltips="1" connect="1" arrows="1" fold="1" page="1" pageScale="1" pageWidth="827" pageHeight="1169" math="0" shadow="0">
      <root>
        <mxCell id="0" />
        <mxCell id="1" parent="0" />
        <mxCell id="ePYyeJCaDAe3k4r9i4kL-61" value="" style="rounded=1;whiteSpace=wrap;html=1;dashed=1;dashPattern=8 8;arcSize=5;" parent="1" vertex="1">
          <mxGeometry x="370" y="-280" width="2260" height="1110" as="geometry" />
        </mxCell>
        <object placeholders="1" c4Name="Customer" c4Type="Person" c4Description="A customer who wants to purchase a insurance offer" label="&lt;font style=&quot;font-size: 16px&quot;&gt;&lt;b&gt;%c4Name%&lt;/b&gt;&lt;/font&gt;&lt;div&gt;[%c4Type%]&lt;/div&gt;&lt;br&gt;&lt;div&gt;&lt;font style=&quot;font-size: 11px&quot;&gt;&lt;font color=&quot;#cccccc&quot;&gt;%c4Description%&lt;/font&gt;&lt;/div&gt;" id="i4OD_vJU-tChS3tay--m-1">
          <mxCell style="html=1;fontSize=11;dashed=0;whiteSpace=wrap;fillColor=#083F75;strokeColor=#06315C;fontColor=#ffffff;shape=mxgraph.c4.person2;align=center;metaEdit=1;points=[[0.5,0,0],[1,0.5,0],[1,0.75,0],[0.75,1,0],[0.5,1,0],[0.25,1,0],[0,0.75,0],[0,0.5,0]];resizable=0;" parent="1" vertex="1">
            <mxGeometry x="1320" y="-674" width="200" height="180" as="geometry" />
          </mxCell>
        </object>
        <object placeholders="1" c4Name="E-mail System" c4Type="Software System" c4Description="Heroku&#39;s e-mail system" label="&lt;font style=&quot;font-size: 16px&quot;&gt;&lt;b&gt;%c4Name%&lt;/b&gt;&lt;/font&gt;&lt;div&gt;[%c4Type%]&lt;/div&gt;&lt;br&gt;&lt;div&gt;&lt;font style=&quot;font-size: 11px&quot;&gt;&lt;font color=&quot;#cccccc&quot;&gt;%c4Description%&lt;/font&gt;&lt;/div&gt;" id="aUYTF6ZQ2Ekoh-6qsDTw-1">
          <mxCell style="rounded=1;whiteSpace=wrap;html=1;labelBackgroundColor=none;fillColor=#8C8496;fontColor=#ffffff;align=center;arcSize=10;strokeColor=#736782;metaEdit=1;resizable=0;points=[[0.25,0,0],[0.5,0,0],[0.75,0,0],[1,0.25,0],[1,0.5,0],[1,0.75,0],[0.75,1,0],[0.5,1,0],[0.25,1,0],[0,0.75,0],[0,0.5,0],[0,0.25,0]];" parent="1" vertex="1">
            <mxGeometry x="1766.99" y="-444.6" width="240" height="120" as="geometry" />
          </mxCell>
        </object>
        <object placeholders="1" c4Name="WhatsApp System" c4Type="Software System" c4Description="WhatsApp API System" label="&lt;font style=&quot;font-size: 16px&quot;&gt;&lt;b&gt;%c4Name%&lt;/b&gt;&lt;/font&gt;&lt;div&gt;[%c4Type%]&lt;/div&gt;&lt;br&gt;&lt;div&gt;&lt;font style=&quot;font-size: 11px&quot;&gt;&lt;font color=&quot;#cccccc&quot;&gt;%c4Description%&lt;/font&gt;&lt;/div&gt;" id="aUYTF6ZQ2Ekoh-6qsDTw-2">
          <mxCell style="rounded=1;whiteSpace=wrap;html=1;labelBackgroundColor=none;fillColor=#8C8496;fontColor=#ffffff;align=center;arcSize=10;strokeColor=#736782;metaEdit=1;resizable=0;points=[[0.25,0,0],[0.5,0,0],[0.75,0,0],[1,0.25,0],[1,0.5,0],[1,0.75,0],[0.75,1,0],[0.5,1,0],[0.25,1,0],[0,0.75,0],[0,0.5,0],[0,0.25,0]];" parent="1" vertex="1">
            <mxGeometry x="2246.9900000000002" y="-504.6" width="240" height="120" as="geometry" />
          </mxCell>
        </object>
        <object placeholders="1" c4Type="Lead Database" c4Container="Container" c4Technology="NoSQL Database" c4Description="Stores leads information" label="&lt;font style=&quot;font-size: 16px&quot;&gt;&lt;b&gt;%c4Type%&lt;/b&gt;&lt;/font&gt;&lt;div&gt;[%c4Container%:&amp;nbsp;%c4Technology%]&lt;/div&gt;&lt;br&gt;&lt;div&gt;&lt;font style=&quot;font-size: 11px&quot;&gt;&lt;font color=&quot;#E6E6E6&quot;&gt;%c4Description%&lt;/font&gt;&lt;/div&gt;" id="aUYTF6ZQ2Ekoh-6qsDTw-4">
          <mxCell style="shape=cylinder3;size=15;whiteSpace=wrap;html=1;boundedLbl=1;rounded=0;labelBackgroundColor=none;fillColor=#23A2D9;fontSize=12;fontColor=#ffffff;align=center;strokeColor=#0E7DAD;metaEdit=1;points=[[0.5,0,0],[1,0.25,0],[1,0.5,0],[1,0.75,0],[0.5,1,0],[0,0.75,0],[0,0.5,0],[0,0.25,0]];resizable=0;" parent="1" vertex="1">
            <mxGeometry x="1996.99" y="670" width="240" height="120" as="geometry" />
          </mxCell>
        </object>
        <object placeholders="1" c4Type="Product Database" c4Container="Container" c4Technology="Relational Database Schema" c4Description="Stores products information" label="&lt;font style=&quot;font-size: 16px&quot;&gt;&lt;b&gt;%c4Type%&lt;/b&gt;&lt;/font&gt;&lt;div&gt;[%c4Container%:&amp;nbsp;%c4Technology%]&lt;/div&gt;&lt;br&gt;&lt;div&gt;&lt;font style=&quot;font-size: 11px&quot;&gt;&lt;font color=&quot;#E6E6E6&quot;&gt;%c4Description%&lt;/font&gt;&lt;/div&gt;" id="aUYTF6ZQ2Ekoh-6qsDTw-5">
          <mxCell style="shape=cylinder3;size=15;whiteSpace=wrap;html=1;boundedLbl=1;rounded=0;labelBackgroundColor=none;fillColor=#23A2D9;fontSize=12;fontColor=#ffffff;align=center;strokeColor=#0E7DAD;metaEdit=1;points=[[0.5,0,0],[1,0.25,0],[1,0.5,0],[1,0.75,0],[0.5,1,0],[0,0.75,0],[0,0.5,0],[0,0.25,0]];resizable=0;" parent="1" vertex="1">
            <mxGeometry x="556" y="375" width="240" height="120" as="geometry" />
          </mxCell>
        </object>
        <mxCell id="ePYyeJCaDAe3k4r9i4kL-32" value="Read From&lt;br style=&quot;font-size: 20px;&quot;&gt;[TCP]" style="edgeStyle=orthogonalEdgeStyle;rounded=1;orthogonalLoop=1;jettySize=auto;html=1;dashed=1;dashPattern=8 8;fontSize=20;exitX=1;exitY=0.5;exitDx=0;exitDy=0;exitPerimeter=0;entryX=0;entryY=0.5;entryDx=0;entryDy=0;entryPerimeter=0;" parent="1" source="aUYTF6ZQ2Ekoh-6qsDTw-6" target="ePYyeJCaDAe3k4r9i4kL-13" edge="1">
          <mxGeometry x="0.0476" y="-5" relative="1" as="geometry">
            <mxPoint x="1490" y="480" as="sourcePoint" />
            <mxPoint x="1800" y="485" as="targetPoint" />
            <Array as="points">
              <mxPoint x="1340" y="435" />
            </Array>
            <mxPoint as="offset" />
          </mxGeometry>
        </mxCell>
        <object placeholders="1" c4Type="Lead Redis Database" c4Container="Container" c4Technology="In-Memory Database" c4Description="Stores leads information" label="&lt;font style=&quot;font-size: 16px&quot;&gt;&lt;b&gt;%c4Type%&lt;/b&gt;&lt;/font&gt;&lt;div&gt;[%c4Container%:&amp;nbsp;%c4Technology%]&lt;/div&gt;&lt;br&gt;&lt;div&gt;&lt;font style=&quot;font-size: 11px&quot;&gt;&lt;font color=&quot;#E6E6E6&quot;&gt;%c4Description%&lt;/font&gt;&lt;/div&gt;" id="aUYTF6ZQ2Ekoh-6qsDTw-6">
          <mxCell style="shape=cylinder3;size=15;whiteSpace=wrap;html=1;boundedLbl=1;rounded=0;labelBackgroundColor=none;fillColor=#23A2D9;fontSize=12;fontColor=#ffffff;align=center;strokeColor=#0E7DAD;metaEdit=1;points=[[0.5,0,0],[1,0.25,0],[1,0.5,0],[1,0.75,0],[0.5,1,0],[0,0.75,0],[0,0.5,0],[0,0.25,0]];resizable=0;" parent="1" vertex="1">
            <mxGeometry x="1100" y="370" width="240" height="120" as="geometry" />
          </mxCell>
        </object>
        <mxCell id="ePYyeJCaDAe3k4r9i4kL-14" value="Reads from Write To&lt;br style=&quot;font-size: 20px;&quot;&gt;[JDBC]" style="edgeStyle=orthogonalEdgeStyle;rounded=0;orthogonalLoop=1;jettySize=auto;html=1;entryX=0.5;entryY=0;entryDx=0;entryDy=0;entryPerimeter=0;dashed=1;dashPattern=8 8;fontSize=20;" parent="1" source="aUYTF6ZQ2Ekoh-6qsDTw-7" target="aUYTF6ZQ2Ekoh-6qsDTw-5" edge="1">
          <mxGeometry relative="1" as="geometry" />
        </mxCell>
        <object placeholders="1" c4Type="Product System" c4Container="Container" c4Technology="e.g. Java SpringBoot" c4Description="Provides product system funcionality via a JSON/HTTPS API." label="&lt;font style=&quot;font-size: 16px&quot;&gt;&lt;b&gt;%c4Type%&lt;/b&gt;&lt;/font&gt;&lt;div&gt;[%c4Container%:&amp;nbsp;%c4Technology%]&lt;/div&gt;&lt;br&gt;&lt;div&gt;&lt;font style=&quot;font-size: 11px&quot;&gt;&lt;font color=&quot;#E6E6E6&quot;&gt;%c4Description%&lt;/font&gt;&lt;/div&gt;" id="aUYTF6ZQ2Ekoh-6qsDTw-7">
          <mxCell style="shape=hexagon;size=50;perimeter=hexagonPerimeter2;whiteSpace=wrap;html=1;fixedSize=1;rounded=1;labelBackgroundColor=none;fillColor=#23A2D9;fontSize=12;fontColor=#ffffff;align=center;strokeColor=#0E7DAD;metaEdit=1;points=[[0.5,0,0],[1,0.25,0],[1,0.5,0],[1,0.75,0],[0.5,1,0],[0,0.75,0],[0,0.5,0],[0,0.25,0]];resizable=0;" parent="1" vertex="1">
            <mxGeometry x="576" y="80" width="200" height="170" as="geometry" />
          </mxCell>
        </object>
        <mxCell id="ePYyeJCaDAe3k4r9i4kL-30" value="Write To&lt;br style=&quot;font-size: 20px;&quot;&gt;[TCP]" style="edgeStyle=orthogonalEdgeStyle;rounded=0;orthogonalLoop=1;jettySize=auto;html=1;entryX=0.5;entryY=0;entryDx=0;entryDy=0;entryPerimeter=0;fontSize=20;dashed=1;dashPattern=8 8;" parent="1" source="aUYTF6ZQ2Ekoh-6qsDTw-8" target="aUYTF6ZQ2Ekoh-6qsDTw-6" edge="1">
          <mxGeometry relative="1" as="geometry">
            <Array as="points" />
          </mxGeometry>
        </mxCell>
        <object placeholders="1" c4Type="BFF System" c4Container="Container" c4Technology="e.g. Java SpringBoot" c4Description="Provides BFF system funcionality via a JSON/HTTPS API." label="&lt;font style=&quot;font-size: 16px&quot;&gt;&lt;b&gt;%c4Type%&lt;/b&gt;&lt;/font&gt;&lt;div&gt;[%c4Container%:&amp;nbsp;%c4Technology%]&lt;/div&gt;&lt;br&gt;&lt;div&gt;&lt;font style=&quot;font-size: 11px&quot;&gt;&lt;font color=&quot;#E6E6E6&quot;&gt;%c4Description%&lt;/font&gt;&lt;/div&gt;" id="aUYTF6ZQ2Ekoh-6qsDTw-8">
          <mxCell style="shape=hexagon;size=50;perimeter=hexagonPerimeter2;whiteSpace=wrap;html=1;fixedSize=1;rounded=1;labelBackgroundColor=none;fillColor=#23A2D9;fontSize=12;fontColor=#ffffff;align=center;strokeColor=#0E7DAD;metaEdit=1;points=[[0.5,0,0],[1,0.25,0],[1,0.5,0],[1,0.75,0],[0.5,1,0],[0,0.75,0],[0,0.5,0],[0,0.25,0]];resizable=0;" parent="1" vertex="1">
            <mxGeometry x="1120" y="80" width="200" height="170" as="geometry" />
          </mxCell>
        </object>
        <object placeholders="1" c4Type="Single-Page Application" c4Container="Container" c4Technology="e.g. JavaScript, Angular etc." c4Description="Provides all of the lead system funcionality to customers and administrator via theirs web browsers" label="&lt;font style=&quot;font-size: 16px&quot;&gt;&lt;b&gt;%c4Type%&lt;/b&gt;&lt;/font&gt;&lt;div&gt;[%c4Container%:&amp;nbsp;%c4Technology%]&lt;/div&gt;&lt;br&gt;&lt;div&gt;&lt;font style=&quot;font-size: 11px&quot;&gt;&lt;font color=&quot;#E6E6E6&quot;&gt;%c4Description%&lt;/font&gt;&lt;/div&gt;" id="aUYTF6ZQ2Ekoh-6qsDTw-9">
          <mxCell style="shape=mxgraph.c4.webBrowserContainer2;whiteSpace=wrap;html=1;boundedLbl=1;rounded=0;labelBackgroundColor=none;strokeColor=#118ACD;fillColor=#23A2D9;strokeColor=#118ACD;strokeColor2=#0E7DAD;fontSize=12;fontColor=#ffffff;align=center;metaEdit=1;points=[[0.5,0,0],[1,0.25,0],[1,0.5,0],[1,0.75,0],[0.5,1,0],[0,0.75,0],[0,0.5,0],[0,0.25,0]];resizable=0;" parent="1" vertex="1">
            <mxGeometry x="830" y="-190" width="240" height="160" as="geometry" />
          </mxCell>
        </object>
        <object placeholders="1" c4Type="Analyzed Lead Topic" c4Container="Container" c4Technology="e.g. Apache Kafka" c4Description="Analyzed Lead event message" label="&lt;font style=&quot;font-size: 16px&quot;&gt;&lt;b&gt;%c4Type%&lt;/b&gt;&lt;/font&gt;&lt;div&gt;[%c4Container%:&amp;nbsp;%c4Technology%]&lt;/div&gt;&lt;br&gt;&lt;div&gt;&lt;font style=&quot;font-size: 11px&quot;&gt;&lt;font color=&quot;#E6E6E6&quot;&gt;%c4Description%&lt;/font&gt;&lt;/div&gt;" id="aUYTF6ZQ2Ekoh-6qsDTw-10">
          <mxCell style="shape=cylinder3;size=15;direction=south;whiteSpace=wrap;html=1;boundedLbl=1;rounded=0;labelBackgroundColor=none;fillColor=#23A2D9;fontSize=12;fontColor=#ffffff;align=center;strokeColor=#0E7DAD;metaEdit=1;points=[[0.5,0,0],[1,0.25,0],[1,0.5,0],[1,0.75,0],[0.5,1,0],[0,0.75,0],[0,0.5,0],[0,0.25,0]];resizable=0;" parent="1" vertex="1">
            <mxGeometry x="2256.9900000000002" y="115.39999999999999" width="240" height="120" as="geometry" />
          </mxCell>
        </object>
        <object placeholders="1" c4Name="Administrator" c4Type="Person" c4Description="A customer who wants to purchase a insurance offer" label="&lt;font style=&quot;font-size: 16px&quot;&gt;&lt;b&gt;%c4Name%&lt;/b&gt;&lt;/font&gt;&lt;div&gt;[%c4Type%]&lt;/div&gt;&lt;br&gt;&lt;div&gt;&lt;font style=&quot;font-size: 11px&quot;&gt;&lt;font color=&quot;#cccccc&quot;&gt;%c4Description%&lt;/font&gt;&lt;/div&gt;" id="ePYyeJCaDAe3k4r9i4kL-1">
          <mxCell style="html=1;fontSize=11;dashed=0;whiteSpace=wrap;fillColor=#083F75;strokeColor=#06315C;fontColor=#ffffff;shape=mxgraph.c4.person2;align=center;metaEdit=1;points=[[0.5,0,0],[1,0.5,0],[1,0.75,0],[0.75,1,0],[0.5,1,0],[0.25,1,0],[0,0.75,0],[0,0.5,0]];resizable=0;" parent="1" vertex="1">
            <mxGeometry x="670" y="-674" width="200" height="180" as="geometry" />
          </mxCell>
        </object>
        <mxCell id="ePYyeJCaDAe3k4r9i4kL-5" value="" style="endArrow=classic;html=1;rounded=0;entryX=0.226;entryY=-0.007;entryDx=0;entryDy=0;entryPerimeter=0;exitX=0.5;exitY=1;exitDx=0;exitDy=0;exitPerimeter=0;dashed=1;dashPattern=8 8;" parent="1" source="ePYyeJCaDAe3k4r9i4kL-1" target="aUYTF6ZQ2Ekoh-6qsDTw-9" edge="1">
          <mxGeometry width="50" height="50" relative="1" as="geometry">
            <mxPoint x="790" y="-260" as="sourcePoint" />
            <mxPoint x="840" y="-310" as="targetPoint" />
          </mxGeometry>
        </mxCell>
        <mxCell id="ePYyeJCaDAe3k4r9i4kL-7" value="&lt;font style=&quot;font-size: 20px;&quot;&gt;Uses&lt;/font&gt;" style="edgeLabel;html=1;align=center;verticalAlign=middle;resizable=0;points=[];fontSize=21;" parent="ePYyeJCaDAe3k4r9i4kL-5" vertex="1" connectable="0">
          <mxGeometry x="0.4429" y="-1" relative="1" as="geometry">
            <mxPoint x="-24" y="-85" as="offset" />
          </mxGeometry>
        </mxCell>
        <mxCell id="ePYyeJCaDAe3k4r9i4kL-6" value="" style="endArrow=classic;html=1;rounded=0;entryX=0.775;entryY=0;entryDx=0;entryDy=0;entryPerimeter=0;exitX=0.5;exitY=1;exitDx=0;exitDy=0;exitPerimeter=0;dashed=1;dashPattern=8 8;" parent="1" source="i4OD_vJU-tChS3tay--m-1" target="aUYTF6ZQ2Ekoh-6qsDTw-9" edge="1">
          <mxGeometry width="50" height="50" relative="1" as="geometry">
            <mxPoint x="920" y="-380" as="sourcePoint" />
            <mxPoint x="1049" y="-201" as="targetPoint" />
          </mxGeometry>
        </mxCell>
        <mxCell id="ePYyeJCaDAe3k4r9i4kL-8" value="Uses" style="edgeLabel;html=1;align=center;verticalAlign=middle;resizable=0;points=[];fontSize=20;" parent="ePYyeJCaDAe3k4r9i4kL-6" vertex="1" connectable="0">
          <mxGeometry x="0.1521" y="-3" relative="1" as="geometry">
            <mxPoint x="20" y="-45" as="offset" />
          </mxGeometry>
        </mxCell>
        <mxCell id="ePYyeJCaDAe3k4r9i4kL-10" value="Delivers" style="edgeStyle=orthogonalEdgeStyle;rounded=0;orthogonalLoop=1;jettySize=auto;html=1;entryX=0;entryY=0.5;entryDx=0;entryDy=0;entryPerimeter=0;fontSize=20;dashed=1;dashPattern=8 8;" parent="1" source="ePYyeJCaDAe3k4r9i4kL-9" target="aUYTF6ZQ2Ekoh-6qsDTw-9" edge="1">
          <mxGeometry relative="1" as="geometry">
            <Array as="points">
              <mxPoint x="720" y="-110" />
              <mxPoint x="720" y="-110" />
            </Array>
          </mxGeometry>
        </mxCell>
        <object placeholders="1" c4Name="AWS S3" c4Type="Cloud Provider" c4Technology="AWS" c4Description="Delivers the static content and the lead system single page application." label="&lt;font style=&quot;font-size: 16px&quot;&gt;&lt;b&gt;%c4Name%&lt;/b&gt;&lt;/font&gt;&lt;div&gt;[%c4Type%: %c4Technology%]&lt;/div&gt;&lt;br&gt;&lt;div&gt;&lt;font style=&quot;font-size: 11px&quot;&gt;%c4Description%&lt;/font&gt;&lt;/div&gt;" id="ePYyeJCaDAe3k4r9i4kL-9">
          <mxCell style="rounded=1;whiteSpace=wrap;html=1;labelBackgroundColor=none;fillColor=#63BEF2;fontColor=#ffffff;align=center;arcSize=6;strokeColor=#2086C9;metaEdit=1;resizable=0;points=[[0.25,0,0],[0.5,0,0],[0.75,0,0],[1,0.25,0],[1,0.5,0],[1,0.75,0],[0.75,1,0],[0.5,1,0],[0.25,1,0],[0,0.75,0],[0,0.5,0],[0,0.25,0]];" parent="1" vertex="1">
            <mxGeometry x="430" y="-170" width="240" height="120" as="geometry" />
          </mxCell>
        </object>
        <mxCell id="ePYyeJCaDAe3k4r9i4kL-11" value="" style="endArrow=classic;html=1;rounded=0;entryX=0.5;entryY=0;entryDx=0;entryDy=0;entryPerimeter=0;dashed=1;dashPattern=8 8;exitX=0.5;exitY=1;exitDx=0;exitDy=0;exitPerimeter=0;" parent="1" source="ePYyeJCaDAe3k4r9i4kL-1" target="ePYyeJCaDAe3k4r9i4kL-9" edge="1">
          <mxGeometry width="50" height="50" relative="1" as="geometry">
            <mxPoint x="750" y="-370" as="sourcePoint" />
            <mxPoint x="894" y="-181" as="targetPoint" />
          </mxGeometry>
        </mxCell>
        <mxCell id="ePYyeJCaDAe3k4r9i4kL-12" value="&lt;font style=&quot;font-size: 20px;&quot;&gt;Uses&lt;br&gt;[HTTPS]&lt;br&gt;&lt;/font&gt;" style="edgeLabel;html=1;align=center;verticalAlign=middle;resizable=0;points=[];fontSize=21;" parent="ePYyeJCaDAe3k4r9i4kL-11" vertex="1" connectable="0">
          <mxGeometry x="0.4429" y="-1" relative="1" as="geometry">
            <mxPoint x="65" y="-99" as="offset" />
          </mxGeometry>
        </mxCell>
        <object placeholders="1" c4Type="Lead System" c4Container="Container" c4Technology="e.g. Java SpringBoot" c4Description="Analyzes leads and publishes the result via Apacha Kafka." label="&lt;font style=&quot;font-size: 16px&quot;&gt;&lt;b&gt;%c4Type%&lt;/b&gt;&lt;/font&gt;&lt;div&gt;[%c4Container%:&amp;nbsp;%c4Technology%]&lt;/div&gt;&lt;br&gt;&lt;div&gt;&lt;font style=&quot;font-size: 11px&quot;&gt;&lt;font color=&quot;#E6E6E6&quot;&gt;%c4Description%&lt;/font&gt;&lt;/div&gt;" id="ePYyeJCaDAe3k4r9i4kL-13">
          <mxCell style="shape=hexagon;size=50;perimeter=hexagonPerimeter2;whiteSpace=wrap;html=1;fixedSize=1;rounded=1;labelBackgroundColor=none;fillColor=#23A2D9;fontSize=12;fontColor=#ffffff;align=center;strokeColor=#0E7DAD;metaEdit=1;points=[[0.5,0,0],[1,0.25,0],[1,0.5,0],[1,0.75,0],[0.5,1,0],[0,0.75,0],[0,0.5,0],[0,0.25,0]];resizable=0;" parent="1" vertex="1">
            <mxGeometry x="2016.99" y="365.4" width="200" height="170" as="geometry" />
          </mxCell>
        </object>
        <mxCell id="ePYyeJCaDAe3k4r9i4kL-16" value="Reads from Write To" style="edgeStyle=orthogonalEdgeStyle;rounded=0;orthogonalLoop=1;jettySize=auto;html=1;entryX=0.5;entryY=0;entryDx=0;entryDy=0;entryPerimeter=0;dashed=1;dashPattern=8 8;fontSize=20;exitX=0.5;exitY=1;exitDx=0;exitDy=0;exitPerimeter=0;" parent="1" source="ePYyeJCaDAe3k4r9i4kL-13" target="aUYTF6ZQ2Ekoh-6qsDTw-4" edge="1">
          <mxGeometry x="-0.0588" relative="1" as="geometry">
            <mxPoint x="896.99" y="385.4" as="sourcePoint" />
            <mxPoint x="766.99" y="395.4" as="targetPoint" />
            <Array as="points" />
            <mxPoint as="offset" />
          </mxGeometry>
        </mxCell>
        <mxCell id="ePYyeJCaDAe3k4r9i4kL-24" value="" style="endArrow=classic;html=1;rounded=0;entryX=0.5;entryY=0;entryDx=0;entryDy=0;entryPerimeter=0;exitX=0.5;exitY=1;exitDx=0;exitDy=0;exitPerimeter=0;dashed=1;dashPattern=8 8;" parent="1" source="aUYTF6ZQ2Ekoh-6qsDTw-9" target="aUYTF6ZQ2Ekoh-6qsDTw-8" edge="1">
          <mxGeometry width="50" height="50" relative="1" as="geometry">
            <mxPoint x="1041" y="-99" as="sourcePoint" />
            <mxPoint x="1174" y="80" as="targetPoint" />
          </mxGeometry>
        </mxCell>
        <mxCell id="ePYyeJCaDAe3k4r9i4kL-25" value="&lt;font style=&quot;font-size: 20px;&quot;&gt;Uses&lt;br&gt;[JSON/HTTP]&lt;br&gt;&lt;/font&gt;" style="edgeLabel;html=1;align=center;verticalAlign=middle;resizable=0;points=[];fontSize=21;" parent="ePYyeJCaDAe3k4r9i4kL-24" vertex="1" connectable="0">
          <mxGeometry x="0.4429" y="-1" relative="1" as="geometry">
            <mxPoint x="-16" y="-30" as="offset" />
          </mxGeometry>
        </mxCell>
        <mxCell id="ePYyeJCaDAe3k4r9i4kL-26" value="" style="endArrow=classic;html=1;rounded=0;exitX=0.5;exitY=1;exitDx=0;exitDy=0;exitPerimeter=0;dashed=1;dashPattern=8 8;entryX=0.5;entryY=0;entryDx=0;entryDy=0;entryPerimeter=0;" parent="1" source="aUYTF6ZQ2Ekoh-6qsDTw-9" target="aUYTF6ZQ2Ekoh-6qsDTw-7" edge="1">
          <mxGeometry width="50" height="50" relative="1" as="geometry">
            <mxPoint x="960" y="-20" as="sourcePoint" />
            <mxPoint x="790" y="70" as="targetPoint" />
          </mxGeometry>
        </mxCell>
        <mxCell id="ePYyeJCaDAe3k4r9i4kL-27" value="&lt;font style=&quot;font-size: 20px;&quot;&gt;Uses&lt;br&gt;[JSON/HTTP]&lt;br&gt;&lt;/font&gt;" style="edgeLabel;html=1;align=center;verticalAlign=middle;resizable=0;points=[];fontSize=21;" parent="ePYyeJCaDAe3k4r9i4kL-26" vertex="1" connectable="0">
          <mxGeometry x="0.4429" y="-1" relative="1" as="geometry">
            <mxPoint x="-16" y="-30" as="offset" />
          </mxGeometry>
        </mxCell>
        <mxCell id="ePYyeJCaDAe3k4r9i4kL-33" value="" style="endArrow=classic;html=1;rounded=0;exitX=0;exitY=0.5;exitDx=0;exitDy=0;exitPerimeter=0;dashed=1;dashPattern=8 8;entryX=1;entryY=0.5;entryDx=0;entryDy=0;entryPerimeter=0;" parent="1" source="aUYTF6ZQ2Ekoh-6qsDTw-8" target="aUYTF6ZQ2Ekoh-6qsDTw-7" edge="1">
          <mxGeometry width="50" height="50" relative="1" as="geometry">
            <mxPoint x="1070" y="170" as="sourcePoint" />
            <mxPoint x="796" y="280" as="targetPoint" />
          </mxGeometry>
        </mxCell>
        <mxCell id="ePYyeJCaDAe3k4r9i4kL-34" value="&lt;font style=&quot;font-size: 20px;&quot;&gt;Uses&lt;br&gt;[JSON/HTTP]&lt;br&gt;&lt;/font&gt;" style="edgeLabel;html=1;align=center;verticalAlign=middle;resizable=0;points=[];fontSize=21;" parent="ePYyeJCaDAe3k4r9i4kL-33" vertex="1" connectable="0">
          <mxGeometry x="0.4429" y="-1" relative="1" as="geometry">
            <mxPoint x="78" y="-30" as="offset" />
          </mxGeometry>
        </mxCell>
        <object placeholders="1" c4Type="Notification System" c4Container="Container" c4Technology="e.g. Java SpringBoot" c4Description="Sends customer notification via E-mail and WhatsApp" label="&lt;font style=&quot;font-size: 16px&quot;&gt;&lt;b&gt;%c4Type%&lt;/b&gt;&lt;/font&gt;&lt;div&gt;[%c4Container%:&amp;nbsp;%c4Technology%]&lt;/div&gt;&lt;br&gt;&lt;div&gt;&lt;font style=&quot;font-size: 11px&quot;&gt;&lt;font color=&quot;#E6E6E6&quot;&gt;%c4Description%&lt;/font&gt;&lt;/div&gt;" id="ePYyeJCaDAe3k4r9i4kL-35">
          <mxCell style="shape=hexagon;size=50;perimeter=hexagonPerimeter2;whiteSpace=wrap;html=1;fixedSize=1;rounded=1;labelBackgroundColor=none;fillColor=#23A2D9;fontSize=12;fontColor=#ffffff;align=center;strokeColor=#0E7DAD;metaEdit=1;points=[[0.5,0,0],[1,0.25,0],[1,0.5,0],[1,0.75,0],[0.5,1,0],[0,0.75,0],[0,0.5,0],[0,0.25,0]];resizable=0;" parent="1" vertex="1">
            <mxGeometry x="2016.99" y="-154.6" width="200" height="170" as="geometry" />
          </mxCell>
        </object>
        <object placeholders="1" c4Type="Notified Lead Topic" c4Container="Container" c4Technology="e.g. Apache Kafka" c4Description="Notified Lead event message" label="&lt;font style=&quot;font-size: 16px&quot;&gt;&lt;b&gt;%c4Type%&lt;/b&gt;&lt;/font&gt;&lt;div&gt;[%c4Container%:&amp;nbsp;%c4Technology%]&lt;/div&gt;&lt;br&gt;&lt;div&gt;&lt;font style=&quot;font-size: 11px&quot;&gt;&lt;font color=&quot;#E6E6E6&quot;&gt;%c4Description%&lt;/font&gt;&lt;/div&gt;" id="ePYyeJCaDAe3k4r9i4kL-36">
          <mxCell style="shape=cylinder3;size=15;direction=south;whiteSpace=wrap;html=1;boundedLbl=1;rounded=0;labelBackgroundColor=none;fillColor=#23A2D9;fontSize=12;fontColor=#ffffff;align=center;strokeColor=#0E7DAD;metaEdit=1;points=[[0.5,0,0],[1,0.25,0],[1,0.5,0],[1,0.75,0],[0.5,1,0],[0,0.75,0],[0,0.5,0],[0,0.25,0]];resizable=0;" parent="1" vertex="1">
            <mxGeometry x="1756.99" y="115.39999999999999" width="240" height="120" as="geometry" />
          </mxCell>
        </object>
        <mxCell id="ePYyeJCaDAe3k4r9i4kL-42" value="" style="endArrow=classic;html=1;rounded=0;entryX=0.5;entryY=1;entryDx=0;entryDy=0;entryPerimeter=0;dashed=1;dashPattern=8 8;exitX=1;exitY=0.25;exitDx=0;exitDy=0;exitPerimeter=0;" parent="1" source="ePYyeJCaDAe3k4r9i4kL-35" target="aUYTF6ZQ2Ekoh-6qsDTw-2" edge="1">
          <mxGeometry width="50" height="50" relative="1" as="geometry">
            <mxPoint x="2986.9900000000002" y="505.4" as="sourcePoint" />
            <mxPoint x="2806.9900000000002" y="665.4" as="targetPoint" />
          </mxGeometry>
        </mxCell>
        <mxCell id="ePYyeJCaDAe3k4r9i4kL-43" value="&lt;font style=&quot;font-size: 20px;&quot;&gt;Uses&lt;br&gt;[JSON/HTTP]&lt;br&gt;&lt;/font&gt;" style="edgeLabel;html=1;align=center;verticalAlign=middle;resizable=0;points=[];fontSize=21;" parent="ePYyeJCaDAe3k4r9i4kL-42" vertex="1" connectable="0">
          <mxGeometry x="0.4429" y="-1" relative="1" as="geometry">
            <mxPoint x="-35" y="12" as="offset" />
          </mxGeometry>
        </mxCell>
        <mxCell id="ePYyeJCaDAe3k4r9i4kL-44" value="" style="endArrow=classic;html=1;rounded=0;dashed=1;dashPattern=8 8;entryX=0.5;entryY=1;entryDx=0;entryDy=0;entryPerimeter=0;" parent="1" target="aUYTF6ZQ2Ekoh-6qsDTw-1" edge="1">
          <mxGeometry width="50" height="50" relative="1" as="geometry">
            <mxPoint x="2016.99" y="-114.60000000000001" as="sourcePoint" />
            <mxPoint x="1786.99" y="-174.6" as="targetPoint" />
          </mxGeometry>
        </mxCell>
        <mxCell id="ePYyeJCaDAe3k4r9i4kL-45" value="&lt;font style=&quot;font-size: 20px;&quot;&gt;Uses&lt;br&gt;[SMTP]&lt;br&gt;&lt;/font&gt;" style="edgeLabel;html=1;align=center;verticalAlign=middle;resizable=0;points=[];fontSize=21;" parent="ePYyeJCaDAe3k4r9i4kL-44" vertex="1" connectable="0">
          <mxGeometry x="0.4429" y="-1" relative="1" as="geometry">
            <mxPoint x="12" y="23" as="offset" />
          </mxGeometry>
        </mxCell>
        <mxCell id="ePYyeJCaDAe3k4r9i4kL-46" value="" style="endArrow=classic;html=1;rounded=0;exitX=1;exitY=0.5;exitDx=0;exitDy=0;exitPerimeter=0;dashed=1;dashPattern=8 8;entryX=1;entryY=0.5;entryDx=0;entryDy=0;entryPerimeter=0;" parent="1" source="ePYyeJCaDAe3k4r9i4kL-13" target="aUYTF6ZQ2Ekoh-6qsDTw-10" edge="1">
          <mxGeometry width="50" height="50" relative="1" as="geometry">
            <mxPoint x="2506.9900000000002" y="325.3999999999999" as="sourcePoint" />
            <mxPoint x="2236.9900000000002" y="434.4399999999999" as="targetPoint" />
          </mxGeometry>
        </mxCell>
        <mxCell id="ePYyeJCaDAe3k4r9i4kL-47" value="&lt;font style=&quot;font-size: 20px;&quot;&gt;Publishes&lt;br&gt;[TCP]&lt;br&gt;&lt;/font&gt;" style="edgeLabel;html=1;align=center;verticalAlign=middle;resizable=0;points=[];fontSize=21;" parent="ePYyeJCaDAe3k4r9i4kL-46" vertex="1" connectable="0">
          <mxGeometry x="0.4429" y="-1" relative="1" as="geometry">
            <mxPoint x="-27" y="40" as="offset" />
          </mxGeometry>
        </mxCell>
        <mxCell id="ePYyeJCaDAe3k4r9i4kL-49" value="" style="endArrow=classic;html=1;rounded=0;exitX=0;exitY=0.5;exitDx=0;exitDy=0;exitPerimeter=0;dashed=1;dashPattern=8 8;entryX=1;entryY=0.5;entryDx=0;entryDy=0;entryPerimeter=0;" parent="1" source="aUYTF6ZQ2Ekoh-6qsDTw-10" target="ePYyeJCaDAe3k4r9i4kL-35" edge="1">
          <mxGeometry width="50" height="50" relative="1" as="geometry">
            <mxPoint x="3066.9900000000002" y="5.399999999999999" as="sourcePoint" />
            <mxPoint x="2826.9900000000002" y="-104.60000000000001" as="targetPoint" />
          </mxGeometry>
        </mxCell>
        <mxCell id="ePYyeJCaDAe3k4r9i4kL-50" value="&lt;font style=&quot;font-size: 20px;&quot;&gt;Subscribes&lt;br&gt;[TCP]&lt;br&gt;&lt;/font&gt;" style="edgeLabel;html=1;align=center;verticalAlign=middle;resizable=0;points=[];fontSize=21;" parent="ePYyeJCaDAe3k4r9i4kL-49" vertex="1" connectable="0">
          <mxGeometry x="0.4429" y="-1" relative="1" as="geometry">
            <mxPoint x="35" y="35" as="offset" />
          </mxGeometry>
        </mxCell>
        <mxCell id="ePYyeJCaDAe3k4r9i4kL-52" value="" style="endArrow=classic;html=1;rounded=0;exitX=0;exitY=0.5;exitDx=0;exitDy=0;exitPerimeter=0;dashed=1;dashPattern=8 8;entryX=0;entryY=0.5;entryDx=0;entryDy=0;entryPerimeter=0;" parent="1" source="ePYyeJCaDAe3k4r9i4kL-35" target="ePYyeJCaDAe3k4r9i4kL-36" edge="1">
          <mxGeometry width="50" height="50" relative="1" as="geometry">
            <mxPoint x="1716.99" y="-89.60000000000001" as="sourcePoint" />
            <mxPoint x="2086.9900000000002" y="-224.6" as="targetPoint" />
          </mxGeometry>
        </mxCell>
        <mxCell id="ePYyeJCaDAe3k4r9i4kL-53" value="&lt;font style=&quot;font-size: 20px;&quot;&gt;Publishes&lt;br&gt;[TCP]&lt;br&gt;&lt;/font&gt;" style="edgeLabel;html=1;align=center;verticalAlign=middle;resizable=0;points=[];fontSize=21;" parent="ePYyeJCaDAe3k4r9i4kL-52" vertex="1" connectable="0">
          <mxGeometry x="0.4429" y="-1" relative="1" as="geometry">
            <mxPoint x="22" y="-48" as="offset" />
          </mxGeometry>
        </mxCell>
        <mxCell id="ePYyeJCaDAe3k4r9i4kL-54" value="" style="endArrow=classic;html=1;rounded=0;exitX=1;exitY=0.5;exitDx=0;exitDy=0;exitPerimeter=0;dashed=1;dashPattern=8 8;entryX=0;entryY=0.25;entryDx=0;entryDy=0;entryPerimeter=0;" parent="1" source="ePYyeJCaDAe3k4r9i4kL-36" target="ePYyeJCaDAe3k4r9i4kL-13" edge="1">
          <mxGeometry width="50" height="50" relative="1" as="geometry">
            <mxPoint x="2916.9900000000002" y="370.4" as="sourcePoint" />
            <mxPoint x="3266.9900000000002" y="505.4" as="targetPoint" />
          </mxGeometry>
        </mxCell>
        <mxCell id="ePYyeJCaDAe3k4r9i4kL-55" value="&lt;font style=&quot;font-size: 20px;&quot;&gt;Subscribes&lt;br&gt;[TCP]&lt;br&gt;&lt;/font&gt;" style="edgeLabel;html=1;align=center;verticalAlign=middle;resizable=0;points=[];fontSize=21;" parent="ePYyeJCaDAe3k4r9i4kL-54" vertex="1" connectable="0">
          <mxGeometry x="0.4429" y="-1" relative="1" as="geometry">
            <mxPoint x="-62" y="-30" as="offset" />
          </mxGeometry>
        </mxCell>
        <mxCell id="ePYyeJCaDAe3k4r9i4kL-57" value="" style="endArrow=classic;html=1;rounded=0;dashed=1;dashPattern=8 8;entryX=1;entryY=0.75;entryDx=0;entryDy=0;entryPerimeter=0;exitX=0;exitY=0.5;exitDx=0;exitDy=0;exitPerimeter=0;" parent="1" source="aUYTF6ZQ2Ekoh-6qsDTw-1" target="i4OD_vJU-tChS3tay--m-1" edge="1">
          <mxGeometry width="50" height="50" relative="1" as="geometry">
            <mxPoint x="1750" y="-460" as="sourcePoint" />
            <mxPoint x="1650" y="-630" as="targetPoint" />
          </mxGeometry>
        </mxCell>
        <mxCell id="ePYyeJCaDAe3k4r9i4kL-58" value="&lt;font style=&quot;font-size: 20px;&quot;&gt;Sends e-mail to&lt;br&gt;&lt;/font&gt;" style="edgeLabel;html=1;align=center;verticalAlign=middle;resizable=0;points=[];fontSize=21;" parent="ePYyeJCaDAe3k4r9i4kL-57" vertex="1" connectable="0">
          <mxGeometry x="0.4429" y="-1" relative="1" as="geometry">
            <mxPoint x="36" y="23" as="offset" />
          </mxGeometry>
        </mxCell>
        <mxCell id="ePYyeJCaDAe3k4r9i4kL-59" value="" style="endArrow=classic;html=1;rounded=0;dashed=1;dashPattern=8 8;entryX=1;entryY=0.5;entryDx=0;entryDy=0;entryPerimeter=0;exitX=0;exitY=0.5;exitDx=0;exitDy=0;exitPerimeter=0;" parent="1" source="aUYTF6ZQ2Ekoh-6qsDTw-2" target="i4OD_vJU-tChS3tay--m-1" edge="1">
          <mxGeometry width="50" height="50" relative="1" as="geometry">
            <mxPoint x="1799" y="-395" as="sourcePoint" />
            <mxPoint x="1560" y="-480" as="targetPoint" />
          </mxGeometry>
        </mxCell>
        <mxCell id="ePYyeJCaDAe3k4r9i4kL-60" value="&lt;font style=&quot;font-size: 20px;&quot;&gt;Sends message to&lt;br&gt;&lt;/font&gt;" style="edgeLabel;html=1;align=center;verticalAlign=middle;resizable=0;points=[];fontSize=21;" parent="ePYyeJCaDAe3k4r9i4kL-59" vertex="1" connectable="0">
          <mxGeometry x="0.4429" y="-1" relative="1" as="geometry">
            <mxPoint x="101" y="-25" as="offset" />
          </mxGeometry>
        </mxCell>
        <mxCell id="ePYyeJCaDAe3k4r9i4kL-62" value="Propospection Lead System&lt;br style=&quot;font-size: 24px;&quot;&gt;&lt;span style=&quot;font-weight: normal; font-size: 24px;&quot;&gt;[Software System]&lt;/span&gt;" style="text;html=1;strokeColor=none;fillColor=none;align=left;verticalAlign=middle;whiteSpace=wrap;rounded=0;fontStyle=1;fontSize=24;" parent="1" vertex="1">
          <mxGeometry x="400" y="700" width="420" height="80" as="geometry" />
        </mxCell>
        <object placeholders="1" c4Type="Quote System" c4Container="Container" c4Technology="e.g. Java SpringBoot" c4Description="Provides quotation system funcionality via a JSON/HTTPS API." label="&lt;font style=&quot;font-size: 16px&quot;&gt;&lt;b&gt;%c4Type%&lt;/b&gt;&lt;/font&gt;&lt;div&gt;[%c4Container%:&amp;nbsp;%c4Technology%]&lt;/div&gt;&lt;br&gt;&lt;div&gt;&lt;font style=&quot;font-size: 11px&quot;&gt;&lt;font color=&quot;#E6E6E6&quot;&gt;%c4Description%&lt;/font&gt;&lt;/div&gt;" id="iXfhG-K0fmoqRjQ4NhZD-1">
          <mxCell style="shape=hexagon;size=50;perimeter=hexagonPerimeter2;whiteSpace=wrap;html=1;fixedSize=1;rounded=1;labelBackgroundColor=none;fillColor=#23A2D9;fontSize=12;fontColor=#ffffff;align=center;strokeColor=#0E7DAD;metaEdit=1;points=[[0.5,0,0],[1,0.25,0],[1,0.5,0],[1,0.75,0],[0.5,1,0],[0,0.75,0],[0,0.5,0],[0,0.25,0]];resizable=0;" vertex="1" parent="1">
            <mxGeometry x="1480" y="80" width="200" height="170" as="geometry" />
          </mxCell>
        </object>
        <object placeholders="1" c4Type="Quote Database" c4Container="Container" c4Technology="NoSQL Database" c4Description="Stores quotation information" label="&lt;font style=&quot;font-size: 16px&quot;&gt;&lt;b&gt;%c4Type%&lt;/b&gt;&lt;/font&gt;&lt;div&gt;[%c4Container%:&amp;nbsp;%c4Technology%]&lt;/div&gt;&lt;br&gt;&lt;div&gt;&lt;font style=&quot;font-size: 11px&quot;&gt;&lt;font color=&quot;#E6E6E6&quot;&gt;%c4Description%&lt;/font&gt;&lt;/div&gt;" id="iXfhG-K0fmoqRjQ4NhZD-2">
          <mxCell style="shape=cylinder3;size=15;whiteSpace=wrap;html=1;boundedLbl=1;rounded=0;labelBackgroundColor=none;fillColor=#23A2D9;fontSize=12;fontColor=#ffffff;align=center;strokeColor=#0E7DAD;metaEdit=1;points=[[0.5,0,0],[1,0.25,0],[1,0.5,0],[1,0.75,0],[0.5,1,0],[0,0.75,0],[0,0.5,0],[0,0.25,0]];resizable=0;" vertex="1" parent="1">
            <mxGeometry x="1460" y="-170" width="240" height="120" as="geometry" />
          </mxCell>
        </object>
        <mxCell id="iXfhG-K0fmoqRjQ4NhZD-4" value="Reads from Write To" style="edgeStyle=orthogonalEdgeStyle;rounded=0;orthogonalLoop=1;jettySize=auto;html=1;entryX=0.5;entryY=1;entryDx=0;entryDy=0;entryPerimeter=0;dashed=1;dashPattern=8 8;fontSize=20;exitX=0.5;exitY=0;exitDx=0;exitDy=0;exitPerimeter=0;" edge="1" parent="1" source="iXfhG-K0fmoqRjQ4NhZD-1" target="iXfhG-K0fmoqRjQ4NhZD-2">
          <mxGeometry x="-0.0588" relative="1" as="geometry">
            <mxPoint x="1720" y="-90" as="sourcePoint" />
            <mxPoint x="1720" y="80" as="targetPoint" />
            <Array as="points" />
            <mxPoint as="offset" />
          </mxGeometry>
        </mxCell>
        <mxCell id="iXfhG-K0fmoqRjQ4NhZD-5" value="" style="endArrow=classic;html=1;rounded=0;exitX=1;exitY=0.5;exitDx=0;exitDy=0;exitPerimeter=0;dashed=1;dashPattern=8 8;" edge="1" parent="1" source="aUYTF6ZQ2Ekoh-6qsDTw-8" target="iXfhG-K0fmoqRjQ4NhZD-1">
          <mxGeometry width="50" height="50" relative="1" as="geometry">
            <mxPoint x="1390" y="280" as="sourcePoint" />
            <mxPoint x="1660" y="390" as="targetPoint" />
          </mxGeometry>
        </mxCell>
        <mxCell id="iXfhG-K0fmoqRjQ4NhZD-6" value="&lt;font style=&quot;font-size: 20px;&quot;&gt;Uses&lt;br&gt;[JSON/HTTP]&lt;br&gt;&lt;/font&gt;" style="edgeLabel;html=1;align=center;verticalAlign=middle;resizable=0;points=[];fontSize=21;" vertex="1" connectable="0" parent="iXfhG-K0fmoqRjQ4NhZD-5">
          <mxGeometry x="0.4429" y="-1" relative="1" as="geometry">
            <mxPoint x="-45" y="-36" as="offset" />
          </mxGeometry>
        </mxCell>
      </root>
    </mxGraphModel>
  </diagram>
  <diagram id="sG4bumVJvPYUMhdxprrF" name="Component Diagram">
    <mxGraphModel dx="2514" dy="1520" grid="1" gridSize="10" guides="1" tooltips="1" connect="1" arrows="1" fold="1" page="1" pageScale="1" pageWidth="827" pageHeight="1169" math="0" shadow="0">
      <root>
        <mxCell id="0" />
        <mxCell id="1" parent="0" />
        <mxCell id="KoHvZWCNIOONJqnG-pSO-1" value="Propspection Lead System" style="shape=umlFrame;whiteSpace=wrap;html=1;pointerEvents=0;width=160;height=20;fillColor=none;" parent="1" vertex="1">
          <mxGeometry x="340" y="250" width="1860" height="960" as="geometry" />
        </mxCell>
        <mxCell id="KoHvZWCNIOONJqnG-pSO-4" value="«component»&lt;br&gt;&lt;b&gt;API Gateway&lt;/b&gt;" style="html=1;dropTarget=0;whiteSpace=wrap;fillColor=#ffff88;strokeColor=#36393d;" parent="1" vertex="1">
          <mxGeometry x="350" y="450" width="1810" height="50" as="geometry" />
        </mxCell>
        <mxCell id="KoHvZWCNIOONJqnG-pSO-5" value="" style="shape=module;jettyWidth=8;jettyHeight=4;fillColor=#ffff88;strokeColor=#36393d;" parent="KoHvZWCNIOONJqnG-pSO-4" vertex="1">
          <mxGeometry x="1" width="20" height="20" relative="1" as="geometry">
            <mxPoint x="-27" y="7" as="offset" />
          </mxGeometry>
        </mxCell>
        <mxCell id="KoHvZWCNIOONJqnG-pSO-6" value="«component»&lt;br&gt;&lt;b&gt;Frontend Angular&lt;/b&gt;" style="html=1;dropTarget=0;whiteSpace=wrap;fillColor=#ffff88;strokeColor=#36393d;" parent="1" vertex="1">
          <mxGeometry x="1165" y="280" width="180" height="60" as="geometry" />
        </mxCell>
        <mxCell id="KoHvZWCNIOONJqnG-pSO-7" value="" style="shape=module;jettyWidth=8;jettyHeight=4;fillColor=#ffff88;strokeColor=#36393d;" parent="KoHvZWCNIOONJqnG-pSO-6" vertex="1">
          <mxGeometry x="1" width="20" height="20" relative="1" as="geometry">
            <mxPoint x="-27" y="7" as="offset" />
          </mxGeometry>
        </mxCell>
        <mxCell id="KoHvZWCNIOONJqnG-pSO-9" value="Use" style="endArrow=open;endSize=12;dashed=1;html=1;rounded=0;exitX=0.5;exitY=1;exitDx=0;exitDy=0;entryX=0.5;entryY=0;entryDx=0;entryDy=0;fillColor=#ffff88;strokeColor=#36393d;" parent="1" source="KoHvZWCNIOONJqnG-pSO-6" target="KoHvZWCNIOONJqnG-pSO-4" edge="1">
          <mxGeometry width="160" relative="1" as="geometry">
            <mxPoint x="760" y="560" as="sourcePoint" />
            <mxPoint x="920" y="560" as="targetPoint" />
          </mxGeometry>
        </mxCell>
        <mxCell id="KoHvZWCNIOONJqnG-pSO-11" value="«component»&lt;br&gt;&lt;b&gt;BFFSystem&lt;/b&gt;" style="html=1;dropTarget=0;whiteSpace=wrap;fillColor=#ffff88;strokeColor=#36393d;" parent="1" vertex="1">
          <mxGeometry x="850" y="720" width="180" height="60" as="geometry" />
        </mxCell>
        <mxCell id="KoHvZWCNIOONJqnG-pSO-12" value="" style="shape=module;jettyWidth=8;jettyHeight=4;fillColor=#ffff88;strokeColor=#36393d;" parent="KoHvZWCNIOONJqnG-pSO-11" vertex="1">
          <mxGeometry x="1" width="20" height="20" relative="1" as="geometry">
            <mxPoint x="-27" y="7" as="offset" />
          </mxGeometry>
        </mxCell>
        <mxCell id="KoHvZWCNIOONJqnG-pSO-13" value="«component»&lt;br&gt;&lt;b&gt;ProductSystem&lt;/b&gt;" style="html=1;dropTarget=0;whiteSpace=wrap;fillColor=#ffff88;strokeColor=#36393d;" parent="1" vertex="1">
          <mxGeometry x="600" y="720" width="180" height="60" as="geometry" />
        </mxCell>
        <mxCell id="KoHvZWCNIOONJqnG-pSO-14" value="" style="shape=module;jettyWidth=8;jettyHeight=4;fillColor=#ffff88;strokeColor=#36393d;" parent="KoHvZWCNIOONJqnG-pSO-13" vertex="1">
          <mxGeometry x="1" width="20" height="20" relative="1" as="geometry">
            <mxPoint x="-27" y="7" as="offset" />
          </mxGeometry>
        </mxCell>
        <mxCell id="KoHvZWCNIOONJqnG-pSO-15" value="«component»&lt;br&gt;&lt;b&gt;Lead System&lt;/b&gt;" style="html=1;dropTarget=0;whiteSpace=wrap;fillColor=#ffff88;strokeColor=#36393d;" parent="1" vertex="1">
          <mxGeometry x="1360" y="720" width="180" height="60" as="geometry" />
        </mxCell>
        <mxCell id="KoHvZWCNIOONJqnG-pSO-16" value="" style="shape=module;jettyWidth=8;jettyHeight=4;fillColor=#ffff88;strokeColor=#36393d;" parent="KoHvZWCNIOONJqnG-pSO-15" vertex="1">
          <mxGeometry x="1" width="20" height="20" relative="1" as="geometry">
            <mxPoint x="-27" y="7" as="offset" />
          </mxGeometry>
        </mxCell>
        <mxCell id="KoHvZWCNIOONJqnG-pSO-17" value="«component»&lt;br&gt;&lt;b&gt;AWS DynamoDB&lt;/b&gt;" style="html=1;dropTarget=0;whiteSpace=wrap;fillColor=#ffff88;strokeColor=#36393d;" parent="1" vertex="1">
          <mxGeometry x="1633" y="980" width="180" height="60" as="geometry" />
        </mxCell>
        <mxCell id="KoHvZWCNIOONJqnG-pSO-18" value="" style="shape=module;jettyWidth=8;jettyHeight=4;fillColor=#ffff88;strokeColor=#36393d;" parent="KoHvZWCNIOONJqnG-pSO-17" vertex="1">
          <mxGeometry x="1" width="20" height="20" relative="1" as="geometry">
            <mxPoint x="-27" y="7" as="offset" />
          </mxGeometry>
        </mxCell>
        <mxCell id="KoHvZWCNIOONJqnG-pSO-26" value="" style="rounded=0;orthogonalLoop=1;jettySize=auto;html=1;endArrow=none;endFill=0;sketch=0;sourcePerimeterSpacing=0;targetPerimeterSpacing=0;exitX=0.5;exitY=0;exitDx=0;exitDy=0;fillColor=#ffff88;strokeColor=#36393d;" parent="1" source="KoHvZWCNIOONJqnG-pSO-17" target="KoHvZWCNIOONJqnG-pSO-28" edge="1">
          <mxGeometry relative="1" as="geometry">
            <mxPoint x="1673" y="930" as="sourcePoint" />
          </mxGeometry>
        </mxCell>
        <mxCell id="KoHvZWCNIOONJqnG-pSO-27" value="" style="rounded=0;orthogonalLoop=1;jettySize=auto;html=1;endArrow=halfCircle;endFill=0;entryX=0.5;entryY=0.5;endSize=6;strokeWidth=1;sketch=0;exitX=0.5;exitY=1;exitDx=0;exitDy=0;fillColor=#ffff88;strokeColor=#36393d;" parent="1" source="KoHvZWCNIOONJqnG-pSO-29" target="KoHvZWCNIOONJqnG-pSO-28" edge="1">
          <mxGeometry relative="1" as="geometry">
            <mxPoint x="1576" y="965" as="sourcePoint" />
          </mxGeometry>
        </mxCell>
        <mxCell id="KoHvZWCNIOONJqnG-pSO-28" value="" style="ellipse;whiteSpace=wrap;html=1;align=center;aspect=fixed;resizable=0;points=[];outlineConnect=0;sketch=0;fillColor=#ffff88;strokeColor=#36393d;" parent="1" vertex="1">
          <mxGeometry x="1718" y="940" width="10" height="10" as="geometry" />
        </mxCell>
        <mxCell id="KoHvZWCNIOONJqnG-pSO-29" value="«component»&lt;br&gt;&lt;b style=&quot;border-color: var(--border-color);&quot;&gt;AWS SDK DynamoDB&lt;/b&gt;" style="html=1;dropTarget=0;whiteSpace=wrap;fillColor=#ffff88;strokeColor=#36393d;" parent="1" vertex="1">
          <mxGeometry x="1633" y="850" width="180" height="60" as="geometry" />
        </mxCell>
        <mxCell id="KoHvZWCNIOONJqnG-pSO-30" value="" style="shape=module;jettyWidth=8;jettyHeight=4;fillColor=#ffff88;strokeColor=#36393d;" parent="KoHvZWCNIOONJqnG-pSO-29" vertex="1">
          <mxGeometry x="1" width="20" height="20" relative="1" as="geometry">
            <mxPoint x="-27" y="7" as="offset" />
          </mxGeometry>
        </mxCell>
        <mxCell id="KoHvZWCNIOONJqnG-pSO-37" value="«component»&lt;br&gt;&lt;b&gt;Spring Data DynamoDB&lt;/b&gt;" style="html=1;dropTarget=0;whiteSpace=wrap;fillColor=#ffff88;strokeColor=#36393d;" parent="1" vertex="1">
          <mxGeometry x="1633" y="720" width="180" height="60" as="geometry" />
        </mxCell>
        <mxCell id="KoHvZWCNIOONJqnG-pSO-38" value="" style="shape=module;jettyWidth=8;jettyHeight=4;fillColor=#ffff88;strokeColor=#36393d;" parent="KoHvZWCNIOONJqnG-pSO-37" vertex="1">
          <mxGeometry x="1" width="20" height="20" relative="1" as="geometry">
            <mxPoint x="-27" y="7" as="offset" />
          </mxGeometry>
        </mxCell>
        <mxCell id="KoHvZWCNIOONJqnG-pSO-41" value="" style="rounded=0;orthogonalLoop=1;jettySize=auto;html=1;endArrow=none;endFill=0;sketch=0;sourcePerimeterSpacing=0;targetPerimeterSpacing=0;exitX=0.5;exitY=0;exitDx=0;exitDy=0;fillColor=#ffff88;strokeColor=#36393d;" parent="1" source="KoHvZWCNIOONJqnG-pSO-29" target="KoHvZWCNIOONJqnG-pSO-43" edge="1">
          <mxGeometry relative="1" as="geometry">
            <mxPoint x="1683" y="810" as="sourcePoint" />
          </mxGeometry>
        </mxCell>
        <mxCell id="KoHvZWCNIOONJqnG-pSO-42" value="" style="rounded=0;orthogonalLoop=1;jettySize=auto;html=1;endArrow=halfCircle;endFill=0;entryX=0.5;entryY=0.5;endSize=6;strokeWidth=1;sketch=0;exitX=0.5;exitY=1;exitDx=0;exitDy=0;entryDx=0;entryDy=0;fillColor=#ffff88;strokeColor=#36393d;" parent="1" source="KoHvZWCNIOONJqnG-pSO-37" target="KoHvZWCNIOONJqnG-pSO-43" edge="1">
          <mxGeometry relative="1" as="geometry">
            <mxPoint x="1746" y="805" as="sourcePoint" />
          </mxGeometry>
        </mxCell>
        <mxCell id="KoHvZWCNIOONJqnG-pSO-43" value="" style="ellipse;whiteSpace=wrap;html=1;align=center;aspect=fixed;resizable=0;points=[];outlineConnect=0;sketch=0;fillColor=#ffff88;strokeColor=#36393d;" parent="1" vertex="1">
          <mxGeometry x="1718" y="810" width="10" height="10" as="geometry" />
        </mxCell>
        <mxCell id="KoHvZWCNIOONJqnG-pSO-48" value="«component»&lt;br&gt;&lt;b&gt;Jedis&lt;/b&gt;" style="html=1;dropTarget=0;whiteSpace=wrap;fillColor=#ffff88;strokeColor=#36393d;" parent="1" vertex="1">
          <mxGeometry x="1360" y="980" width="180" height="60" as="geometry" />
        </mxCell>
        <mxCell id="KoHvZWCNIOONJqnG-pSO-49" value="" style="shape=module;jettyWidth=8;jettyHeight=4;fillColor=#ffff88;strokeColor=#36393d;" parent="KoHvZWCNIOONJqnG-pSO-48" vertex="1">
          <mxGeometry x="1" width="20" height="20" relative="1" as="geometry">
            <mxPoint x="-27" y="7" as="offset" />
          </mxGeometry>
        </mxCell>
        <mxCell id="KoHvZWCNIOONJqnG-pSO-50" value="«component»&lt;br&gt;&lt;b&gt;Spring Data Redis&lt;/b&gt;" style="html=1;dropTarget=0;whiteSpace=wrap;fillColor=#ffff88;strokeColor=#36393d;" parent="1" vertex="1">
          <mxGeometry x="1360" y="850" width="180" height="60" as="geometry" />
        </mxCell>
        <mxCell id="KoHvZWCNIOONJqnG-pSO-51" value="" style="shape=module;jettyWidth=8;jettyHeight=4;fillColor=#ffff88;strokeColor=#36393d;" parent="KoHvZWCNIOONJqnG-pSO-50" vertex="1">
          <mxGeometry x="1" width="20" height="20" relative="1" as="geometry">
            <mxPoint x="-27" y="7" as="offset" />
          </mxGeometry>
        </mxCell>
        <mxCell id="KoHvZWCNIOONJqnG-pSO-55" value="" style="rounded=0;orthogonalLoop=1;jettySize=auto;html=1;endArrow=none;endFill=0;sketch=0;sourcePerimeterSpacing=0;targetPerimeterSpacing=0;exitX=0.5;exitY=0;exitDx=0;exitDy=0;fillColor=#ffff88;strokeColor=#36393d;" parent="1" source="KoHvZWCNIOONJqnG-pSO-48" target="KoHvZWCNIOONJqnG-pSO-57" edge="1">
          <mxGeometry relative="1" as="geometry">
            <mxPoint x="1393" y="940" as="sourcePoint" />
          </mxGeometry>
        </mxCell>
        <mxCell id="KoHvZWCNIOONJqnG-pSO-56" value="" style="rounded=0;orthogonalLoop=1;jettySize=auto;html=1;endArrow=halfCircle;endFill=0;entryX=0.5;entryY=0.5;endSize=6;strokeWidth=1;sketch=0;exitX=0.5;exitY=1;exitDx=0;exitDy=0;fillColor=#ffff88;strokeColor=#36393d;" parent="1" source="KoHvZWCNIOONJqnG-pSO-50" target="KoHvZWCNIOONJqnG-pSO-57" edge="1">
          <mxGeometry relative="1" as="geometry">
            <mxPoint x="1630" y="880" as="sourcePoint" />
          </mxGeometry>
        </mxCell>
        <mxCell id="KoHvZWCNIOONJqnG-pSO-57" value="" style="ellipse;whiteSpace=wrap;html=1;align=center;aspect=fixed;resizable=0;points=[];outlineConnect=0;sketch=0;fillColor=#ffff88;strokeColor=#36393d;" parent="1" vertex="1">
          <mxGeometry x="1445" y="940" width="10" height="10" as="geometry" />
        </mxCell>
        <mxCell id="KoHvZWCNIOONJqnG-pSO-58" value="«component»&lt;br&gt;&lt;b&gt;AWS ElastiCache&lt;/b&gt;" style="html=1;dropTarget=0;whiteSpace=wrap;fillColor=#ffff88;strokeColor=#36393d;" parent="1" vertex="1">
          <mxGeometry x="1110" y="1120" width="180" height="60" as="geometry" />
        </mxCell>
        <mxCell id="KoHvZWCNIOONJqnG-pSO-59" value="" style="shape=module;jettyWidth=8;jettyHeight=4;fillColor=#ffff88;strokeColor=#36393d;" parent="KoHvZWCNIOONJqnG-pSO-58" vertex="1">
          <mxGeometry x="1" width="20" height="20" relative="1" as="geometry">
            <mxPoint x="-27" y="7" as="offset" />
          </mxGeometry>
        </mxCell>
        <mxCell id="KoHvZWCNIOONJqnG-pSO-61" value="" style="rounded=0;orthogonalLoop=1;jettySize=auto;html=1;endArrow=none;endFill=0;sketch=0;sourcePerimeterSpacing=0;targetPerimeterSpacing=0;exitX=0.5;exitY=0;exitDx=0;exitDy=0;fillColor=#ffff88;strokeColor=#36393d;" parent="1" source="KoHvZWCNIOONJqnG-pSO-58" target="KoHvZWCNIOONJqnG-pSO-63" edge="1">
          <mxGeometry relative="1" as="geometry">
            <mxPoint x="1210" y="1100" as="sourcePoint" />
          </mxGeometry>
        </mxCell>
        <mxCell id="KoHvZWCNIOONJqnG-pSO-62" value="" style="rounded=0;orthogonalLoop=1;jettySize=auto;html=1;endArrow=halfCircle;endFill=0;entryX=0.5;entryY=0.5;endSize=6;strokeWidth=1;sketch=0;exitX=0.5;exitY=1;exitDx=0;exitDy=0;fillColor=#ffff88;strokeColor=#36393d;" parent="1" source="KoHvZWCNIOONJqnG-pSO-48" target="KoHvZWCNIOONJqnG-pSO-63" edge="1">
          <mxGeometry relative="1" as="geometry">
            <mxPoint x="1217" y="1055" as="sourcePoint" />
          </mxGeometry>
        </mxCell>
        <mxCell id="KoHvZWCNIOONJqnG-pSO-63" value="" style="ellipse;whiteSpace=wrap;html=1;align=center;aspect=fixed;resizable=0;points=[];outlineConnect=0;sketch=0;fillColor=#ffff88;strokeColor=#36393d;" parent="1" vertex="1">
          <mxGeometry x="1445" y="1080" width="10" height="10" as="geometry" />
        </mxCell>
        <mxCell id="KoHvZWCNIOONJqnG-pSO-66" value="Use" style="endArrow=open;endSize=12;dashed=1;html=1;rounded=0;entryX=0.5;entryY=0;entryDx=0;entryDy=0;exitX=0.256;exitY=1.062;exitDx=0;exitDy=0;exitPerimeter=0;fillColor=#ffff88;strokeColor=#36393d;" parent="1" source="KoHvZWCNIOONJqnG-pSO-4" target="KoHvZWCNIOONJqnG-pSO-181" edge="1">
          <mxGeometry width="160" relative="1" as="geometry">
            <mxPoint x="740.53" y="500" as="sourcePoint" />
            <mxPoint x="740" y="580" as="targetPoint" />
          </mxGeometry>
        </mxCell>
        <mxCell id="KoHvZWCNIOONJqnG-pSO-68" value="«component»&lt;br&gt;&lt;b&gt;Spring Data Redis&lt;/b&gt;" style="html=1;dropTarget=0;whiteSpace=wrap;fillColor=#ffff88;strokeColor=#36393d;" parent="1" vertex="1">
          <mxGeometry x="850" y="850" width="180" height="60" as="geometry" />
        </mxCell>
        <mxCell id="KoHvZWCNIOONJqnG-pSO-69" value="" style="shape=module;jettyWidth=8;jettyHeight=4;fillColor=#ffff88;strokeColor=#36393d;" parent="KoHvZWCNIOONJqnG-pSO-68" vertex="1">
          <mxGeometry x="1" width="20" height="20" relative="1" as="geometry">
            <mxPoint x="-27" y="7" as="offset" />
          </mxGeometry>
        </mxCell>
        <mxCell id="KoHvZWCNIOONJqnG-pSO-73" value="" style="rounded=0;orthogonalLoop=1;jettySize=auto;html=1;endArrow=none;endFill=0;sketch=0;sourcePerimeterSpacing=0;targetPerimeterSpacing=0;exitX=0.5;exitY=0;exitDx=0;exitDy=0;fillColor=#ffff88;strokeColor=#36393d;" parent="1" source="KoHvZWCNIOONJqnG-pSO-68" target="KoHvZWCNIOONJqnG-pSO-75" edge="1">
          <mxGeometry relative="1" as="geometry">
            <mxPoint x="910" y="800" as="sourcePoint" />
          </mxGeometry>
        </mxCell>
        <mxCell id="KoHvZWCNIOONJqnG-pSO-74" value="" style="rounded=0;orthogonalLoop=1;jettySize=auto;html=1;endArrow=halfCircle;endFill=0;entryX=0.5;entryY=0.5;endSize=6;strokeWidth=1;sketch=0;exitX=0.5;exitY=1;exitDx=0;exitDy=0;fillColor=#ffff88;strokeColor=#36393d;" parent="1" source="KoHvZWCNIOONJqnG-pSO-11" target="KoHvZWCNIOONJqnG-pSO-75" edge="1">
          <mxGeometry relative="1" as="geometry">
            <mxPoint x="920" y="815" as="sourcePoint" />
          </mxGeometry>
        </mxCell>
        <mxCell id="KoHvZWCNIOONJqnG-pSO-75" value="" style="ellipse;whiteSpace=wrap;html=1;align=center;aspect=fixed;resizable=0;points=[];outlineConnect=0;sketch=0;fillColor=#ffff88;strokeColor=#36393d;" parent="1" vertex="1">
          <mxGeometry x="935" y="810" width="10" height="10" as="geometry" />
        </mxCell>
        <mxCell id="KoHvZWCNIOONJqnG-pSO-76" value="" style="rounded=0;orthogonalLoop=1;jettySize=auto;html=1;endArrow=none;endFill=0;sketch=0;sourcePerimeterSpacing=0;targetPerimeterSpacing=0;exitX=0.5;exitY=0;exitDx=0;exitDy=0;fillColor=#ffff88;strokeColor=#36393d;" parent="1" source="KoHvZWCNIOONJqnG-pSO-50" target="KoHvZWCNIOONJqnG-pSO-78" edge="1">
          <mxGeometry relative="1" as="geometry">
            <mxPoint x="1413" y="800" as="sourcePoint" />
          </mxGeometry>
        </mxCell>
        <mxCell id="KoHvZWCNIOONJqnG-pSO-77" value="" style="rounded=0;orthogonalLoop=1;jettySize=auto;html=1;endArrow=halfCircle;endFill=0;entryX=0.5;entryY=0.5;endSize=6;strokeWidth=1;sketch=0;exitX=0.5;exitY=1;exitDx=0;exitDy=0;fillColor=#ffff88;strokeColor=#36393d;" parent="1" source="KoHvZWCNIOONJqnG-pSO-15" target="KoHvZWCNIOONJqnG-pSO-78" edge="1">
          <mxGeometry relative="1" as="geometry">
            <mxPoint x="1445" y="830" as="sourcePoint" />
          </mxGeometry>
        </mxCell>
        <mxCell id="KoHvZWCNIOONJqnG-pSO-78" value="" style="ellipse;whiteSpace=wrap;html=1;align=center;aspect=fixed;resizable=0;points=[];outlineConnect=0;sketch=0;fillColor=#ffff88;strokeColor=#36393d;" parent="1" vertex="1">
          <mxGeometry x="1445" y="810" width="10" height="10" as="geometry" />
        </mxCell>
        <mxCell id="KoHvZWCNIOONJqnG-pSO-79" value="«component»&lt;br&gt;&lt;b&gt;Jedis&lt;/b&gt;" style="html=1;dropTarget=0;whiteSpace=wrap;fillColor=#ffff88;strokeColor=#36393d;" parent="1" vertex="1">
          <mxGeometry x="850" y="980" width="180" height="60" as="geometry" />
        </mxCell>
        <mxCell id="KoHvZWCNIOONJqnG-pSO-80" value="" style="shape=module;jettyWidth=8;jettyHeight=4;fillColor=#ffff88;strokeColor=#36393d;" parent="KoHvZWCNIOONJqnG-pSO-79" vertex="1">
          <mxGeometry x="1" width="20" height="20" relative="1" as="geometry">
            <mxPoint x="-27" y="7" as="offset" />
          </mxGeometry>
        </mxCell>
        <mxCell id="KoHvZWCNIOONJqnG-pSO-81" value="" style="rounded=0;orthogonalLoop=1;jettySize=auto;html=1;endArrow=none;endFill=0;sketch=0;sourcePerimeterSpacing=0;targetPerimeterSpacing=0;exitX=0.5;exitY=0;exitDx=0;exitDy=0;fillColor=#ffff88;strokeColor=#36393d;" parent="1" source="KoHvZWCNIOONJqnG-pSO-79" target="KoHvZWCNIOONJqnG-pSO-83" edge="1">
          <mxGeometry relative="1" as="geometry">
            <mxPoint x="910" y="940" as="sourcePoint" />
          </mxGeometry>
        </mxCell>
        <mxCell id="KoHvZWCNIOONJqnG-pSO-82" value="" style="rounded=0;orthogonalLoop=1;jettySize=auto;html=1;endArrow=halfCircle;endFill=0;entryX=0.5;entryY=0.5;endSize=6;strokeWidth=1;sketch=0;exitX=0.5;exitY=1;exitDx=0;exitDy=0;fillColor=#ffff88;strokeColor=#36393d;" parent="1" source="KoHvZWCNIOONJqnG-pSO-68" target="KoHvZWCNIOONJqnG-pSO-83" edge="1">
          <mxGeometry relative="1" as="geometry">
            <mxPoint x="930" y="946" as="sourcePoint" />
          </mxGeometry>
        </mxCell>
        <mxCell id="KoHvZWCNIOONJqnG-pSO-83" value="" style="ellipse;whiteSpace=wrap;html=1;align=center;aspect=fixed;resizable=0;points=[];outlineConnect=0;sketch=0;fillColor=#ffff88;strokeColor=#36393d;" parent="1" vertex="1">
          <mxGeometry x="935" y="940" width="10" height="10" as="geometry" />
        </mxCell>
        <mxCell id="KoHvZWCNIOONJqnG-pSO-84" value="" style="rounded=0;orthogonalLoop=1;jettySize=auto;html=1;endArrow=none;endFill=0;sketch=0;sourcePerimeterSpacing=0;targetPerimeterSpacing=0;exitX=0.5;exitY=0;exitDx=0;exitDy=0;fillColor=#ffff88;strokeColor=#36393d;" parent="1" source="KoHvZWCNIOONJqnG-pSO-58" target="KoHvZWCNIOONJqnG-pSO-86" edge="1">
          <mxGeometry relative="1" as="geometry">
            <mxPoint x="900" y="1070" as="sourcePoint" />
          </mxGeometry>
        </mxCell>
        <mxCell id="KoHvZWCNIOONJqnG-pSO-85" value="" style="rounded=0;orthogonalLoop=1;jettySize=auto;html=1;endArrow=halfCircle;endFill=0;entryX=0.5;entryY=0.5;endSize=6;strokeWidth=1;sketch=0;exitX=0.5;exitY=1;exitDx=0;exitDy=0;fillColor=#ffff88;strokeColor=#36393d;" parent="1" source="KoHvZWCNIOONJqnG-pSO-79" target="KoHvZWCNIOONJqnG-pSO-86" edge="1">
          <mxGeometry relative="1" as="geometry">
            <mxPoint x="1040" y="1155" as="sourcePoint" />
          </mxGeometry>
        </mxCell>
        <mxCell id="KoHvZWCNIOONJqnG-pSO-86" value="" style="ellipse;whiteSpace=wrap;html=1;align=center;aspect=fixed;resizable=0;points=[];outlineConnect=0;sketch=0;fillColor=#ffff88;strokeColor=#36393d;" parent="1" vertex="1">
          <mxGeometry x="935" y="1080" width="10" height="10" as="geometry" />
        </mxCell>
        <mxCell id="KoHvZWCNIOONJqnG-pSO-90" value="" style="rounded=0;orthogonalLoop=1;jettySize=auto;html=1;endArrow=none;endFill=0;sketch=0;sourcePerimeterSpacing=0;targetPerimeterSpacing=0;exitX=0;exitY=0.5;exitDx=0;exitDy=0;fillColor=#ffff88;strokeColor=#36393d;" parent="1" source="KoHvZWCNIOONJqnG-pSO-37" target="KoHvZWCNIOONJqnG-pSO-92" edge="1">
          <mxGeometry relative="1" as="geometry">
            <mxPoint x="1593" y="790" as="sourcePoint" />
          </mxGeometry>
        </mxCell>
        <mxCell id="KoHvZWCNIOONJqnG-pSO-91" value="" style="rounded=0;orthogonalLoop=1;jettySize=auto;html=1;endArrow=halfCircle;endFill=0;entryX=0.5;entryY=0.5;endSize=6;strokeWidth=1;sketch=0;exitX=1;exitY=0.5;exitDx=0;exitDy=0;fillColor=#ffff88;strokeColor=#36393d;" parent="1" source="KoHvZWCNIOONJqnG-pSO-15" target="KoHvZWCNIOONJqnG-pSO-92" edge="1">
          <mxGeometry relative="1" as="geometry">
            <mxPoint x="1593" y="805" as="sourcePoint" />
          </mxGeometry>
        </mxCell>
        <mxCell id="KoHvZWCNIOONJqnG-pSO-92" value="" style="ellipse;whiteSpace=wrap;html=1;align=center;aspect=fixed;resizable=0;points=[];outlineConnect=0;sketch=0;fillColor=#ffff88;strokeColor=#36393d;" parent="1" vertex="1">
          <mxGeometry x="1583" y="745" width="10" height="10" as="geometry" />
        </mxCell>
        <mxCell id="KoHvZWCNIOONJqnG-pSO-93" value="«component»&lt;br&gt;&lt;b&gt;AWS RDS&lt;/b&gt;" style="html=1;dropTarget=0;whiteSpace=wrap;fillColor=#ffff88;strokeColor=#36393d;" parent="1" vertex="1">
          <mxGeometry x="600" y="1110" width="180" height="60" as="geometry" />
        </mxCell>
        <mxCell id="KoHvZWCNIOONJqnG-pSO-94" value="" style="shape=module;jettyWidth=8;jettyHeight=4;fillColor=#ffff88;strokeColor=#36393d;" parent="KoHvZWCNIOONJqnG-pSO-93" vertex="1">
          <mxGeometry x="1" width="20" height="20" relative="1" as="geometry">
            <mxPoint x="-27" y="7" as="offset" />
          </mxGeometry>
        </mxCell>
        <mxCell id="KoHvZWCNIOONJqnG-pSO-95" value="«component»&lt;br&gt;&lt;b&gt;Driver JDBC Postgres 15&lt;/b&gt;" style="html=1;dropTarget=0;whiteSpace=wrap;fillColor=#ffff88;strokeColor=#36393d;" parent="1" vertex="1">
          <mxGeometry x="600" y="980" width="180" height="60" as="geometry" />
        </mxCell>
        <mxCell id="KoHvZWCNIOONJqnG-pSO-96" value="" style="shape=module;jettyWidth=8;jettyHeight=4;fillColor=#ffff88;strokeColor=#36393d;" parent="KoHvZWCNIOONJqnG-pSO-95" vertex="1">
          <mxGeometry x="1" width="20" height="20" relative="1" as="geometry">
            <mxPoint x="-27" y="7" as="offset" />
          </mxGeometry>
        </mxCell>
        <mxCell id="KoHvZWCNIOONJqnG-pSO-97" value="«component»&lt;br&gt;&lt;b&gt;Spring Data JPA&lt;/b&gt;" style="html=1;dropTarget=0;whiteSpace=wrap;fillColor=#ffff88;strokeColor=#36393d;" parent="1" vertex="1">
          <mxGeometry x="600" y="850" width="180" height="60" as="geometry" />
        </mxCell>
        <mxCell id="KoHvZWCNIOONJqnG-pSO-98" value="" style="shape=module;jettyWidth=8;jettyHeight=4;fillColor=#ffff88;strokeColor=#36393d;" parent="KoHvZWCNIOONJqnG-pSO-97" vertex="1">
          <mxGeometry x="1" width="20" height="20" relative="1" as="geometry">
            <mxPoint x="-27" y="7" as="offset" />
          </mxGeometry>
        </mxCell>
        <mxCell id="KoHvZWCNIOONJqnG-pSO-99" value="«component»&lt;br&gt;&lt;b&gt;AWS Lambda&lt;/b&gt;" style="html=1;dropTarget=0;whiteSpace=wrap;fillColor=#ffff88;strokeColor=#36393d;" parent="1" vertex="1">
          <mxGeometry x="380" y="586" width="180" height="60" as="geometry" />
        </mxCell>
        <mxCell id="KoHvZWCNIOONJqnG-pSO-100" value="" style="shape=module;jettyWidth=8;jettyHeight=4;fillColor=#ffff88;strokeColor=#36393d;" parent="KoHvZWCNIOONJqnG-pSO-99" vertex="1">
          <mxGeometry x="1" width="20" height="20" relative="1" as="geometry">
            <mxPoint x="-27" y="7" as="offset" />
          </mxGeometry>
        </mxCell>
        <mxCell id="KoHvZWCNIOONJqnG-pSO-102" value="" style="rounded=0;orthogonalLoop=1;jettySize=auto;html=1;endArrow=none;endFill=0;sketch=0;sourcePerimeterSpacing=0;targetPerimeterSpacing=0;exitX=0.5;exitY=0;exitDx=0;exitDy=0;fillColor=#ffff88;strokeColor=#36393d;" parent="1" source="KoHvZWCNIOONJqnG-pSO-97" target="KoHvZWCNIOONJqnG-pSO-104" edge="1">
          <mxGeometry relative="1" as="geometry">
            <mxPoint x="640" y="805" as="sourcePoint" />
          </mxGeometry>
        </mxCell>
        <mxCell id="KoHvZWCNIOONJqnG-pSO-103" value="" style="rounded=0;orthogonalLoop=1;jettySize=auto;html=1;endArrow=halfCircle;endFill=0;entryX=0.5;entryY=0.5;endSize=6;strokeWidth=1;sketch=0;exitX=0.5;exitY=1;exitDx=0;exitDy=0;fillColor=#ffff88;strokeColor=#36393d;" parent="1" source="KoHvZWCNIOONJqnG-pSO-13" target="KoHvZWCNIOONJqnG-pSO-104" edge="1">
          <mxGeometry relative="1" as="geometry">
            <mxPoint x="680" y="805" as="sourcePoint" />
          </mxGeometry>
        </mxCell>
        <mxCell id="KoHvZWCNIOONJqnG-pSO-104" value="" style="ellipse;whiteSpace=wrap;html=1;align=center;aspect=fixed;resizable=0;points=[];outlineConnect=0;sketch=0;fillColor=#ffff88;strokeColor=#36393d;" parent="1" vertex="1">
          <mxGeometry x="685" y="810" width="10" height="10" as="geometry" />
        </mxCell>
        <mxCell id="KoHvZWCNIOONJqnG-pSO-105" value="" style="rounded=0;orthogonalLoop=1;jettySize=auto;html=1;endArrow=none;endFill=0;sketch=0;sourcePerimeterSpacing=0;targetPerimeterSpacing=0;exitX=0.5;exitY=0;exitDx=0;exitDy=0;fillColor=#ffff88;strokeColor=#36393d;" parent="1" source="KoHvZWCNIOONJqnG-pSO-95" target="KoHvZWCNIOONJqnG-pSO-107" edge="1">
          <mxGeometry relative="1" as="geometry">
            <mxPoint x="655" y="945" as="sourcePoint" />
          </mxGeometry>
        </mxCell>
        <mxCell id="KoHvZWCNIOONJqnG-pSO-106" value="" style="rounded=0;orthogonalLoop=1;jettySize=auto;html=1;endArrow=halfCircle;endFill=0;entryX=0.5;entryY=0.5;endSize=6;strokeWidth=1;sketch=0;exitX=0.5;exitY=1;exitDx=0;exitDy=0;fillColor=#ffff88;strokeColor=#36393d;" parent="1" source="KoHvZWCNIOONJqnG-pSO-97" target="KoHvZWCNIOONJqnG-pSO-107" edge="1">
          <mxGeometry relative="1" as="geometry">
            <mxPoint x="695" y="945" as="sourcePoint" />
          </mxGeometry>
        </mxCell>
        <mxCell id="KoHvZWCNIOONJqnG-pSO-107" value="" style="ellipse;whiteSpace=wrap;html=1;align=center;aspect=fixed;resizable=0;points=[];outlineConnect=0;sketch=0;fillColor=#ffff88;strokeColor=#36393d;" parent="1" vertex="1">
          <mxGeometry x="685" y="940" width="10" height="10" as="geometry" />
        </mxCell>
        <mxCell id="KoHvZWCNIOONJqnG-pSO-108" value="" style="rounded=0;orthogonalLoop=1;jettySize=auto;html=1;endArrow=none;endFill=0;sketch=0;sourcePerimeterSpacing=0;targetPerimeterSpacing=0;exitX=0.5;exitY=0;exitDx=0;exitDy=0;fillColor=#ffff88;strokeColor=#36393d;" parent="1" source="KoHvZWCNIOONJqnG-pSO-93" target="KoHvZWCNIOONJqnG-pSO-110" edge="1">
          <mxGeometry relative="1" as="geometry">
            <mxPoint x="654" y="1075" as="sourcePoint" />
          </mxGeometry>
        </mxCell>
        <mxCell id="KoHvZWCNIOONJqnG-pSO-109" value="" style="rounded=0;orthogonalLoop=1;jettySize=auto;html=1;endArrow=halfCircle;endFill=0;entryX=0.5;entryY=0.5;endSize=6;strokeWidth=1;sketch=0;exitX=0.5;exitY=1;exitDx=0;exitDy=0;fillColor=#ffff88;strokeColor=#36393d;" parent="1" source="KoHvZWCNIOONJqnG-pSO-95" target="KoHvZWCNIOONJqnG-pSO-110" edge="1">
          <mxGeometry relative="1" as="geometry">
            <mxPoint x="694" y="1075" as="sourcePoint" />
          </mxGeometry>
        </mxCell>
        <mxCell id="KoHvZWCNIOONJqnG-pSO-110" value="" style="ellipse;whiteSpace=wrap;html=1;align=center;aspect=fixed;resizable=0;points=[];outlineConnect=0;sketch=0;fillColor=#ffff88;strokeColor=#36393d;" parent="1" vertex="1">
          <mxGeometry x="685" y="1070" width="10" height="10" as="geometry" />
        </mxCell>
        <mxCell id="KoHvZWCNIOONJqnG-pSO-111" value="Persistence" style="text;align=center;fontStyle=1;verticalAlign=middle;spacingLeft=3;spacingRight=3;rotatable=0;points=[[0,0.5],[1,0.5]];portConstraint=eastwest;html=1;fillColor=none;" parent="1" vertex="1">
          <mxGeometry x="695" y="1040" width="80" height="26" as="geometry" />
        </mxCell>
        <mxCell id="KoHvZWCNIOONJqnG-pSO-112" value="Persistence" style="text;align=center;fontStyle=1;verticalAlign=middle;spacingLeft=3;spacingRight=3;rotatable=0;points=[[0,0.5],[1,0.5]];portConstraint=eastwest;html=1;fillColor=none;" parent="1" vertex="1">
          <mxGeometry x="695" y="780" width="80" height="26" as="geometry" />
        </mxCell>
        <mxCell id="KoHvZWCNIOONJqnG-pSO-113" value="Persistence" style="text;align=center;fontStyle=1;verticalAlign=middle;spacingLeft=3;spacingRight=3;rotatable=0;points=[[0,0.5],[1,0.5]];portConstraint=eastwest;html=1;fillColor=none;" parent="1" vertex="1">
          <mxGeometry x="695" y="910" width="80" height="26" as="geometry" />
        </mxCell>
        <mxCell id="KoHvZWCNIOONJqnG-pSO-114" value="Persistence" style="text;align=center;fontStyle=1;verticalAlign=middle;spacingLeft=3;spacingRight=3;rotatable=0;points=[[0,0.5],[1,0.5]];portConstraint=eastwest;html=1;fillColor=none;" parent="1" vertex="1">
          <mxGeometry x="945" y="780" width="80" height="26" as="geometry" />
        </mxCell>
        <mxCell id="KoHvZWCNIOONJqnG-pSO-115" value="Persistence" style="text;align=center;fontStyle=1;verticalAlign=middle;spacingLeft=3;spacingRight=3;rotatable=0;points=[[0,0.5],[1,0.5]];portConstraint=eastwest;html=1;fillColor=none;" parent="1" vertex="1">
          <mxGeometry x="945" y="910" width="80" height="26" as="geometry" />
        </mxCell>
        <mxCell id="KoHvZWCNIOONJqnG-pSO-116" value="Persistence" style="text;align=center;fontStyle=1;verticalAlign=middle;spacingLeft=3;spacingRight=3;rotatable=0;points=[[0,0.5],[1,0.5]];portConstraint=eastwest;html=1;fillColor=none;" parent="1" vertex="1">
          <mxGeometry x="1460" y="910" width="80" height="26" as="geometry" />
        </mxCell>
        <mxCell id="KoHvZWCNIOONJqnG-pSO-117" value="Persistence" style="text;align=center;fontStyle=1;verticalAlign=middle;spacingLeft=3;spacingRight=3;rotatable=0;points=[[0,0.5],[1,0.5]];portConstraint=eastwest;html=1;fillColor=none;" parent="1" vertex="1">
          <mxGeometry x="1460" y="780" width="80" height="26" as="geometry" />
        </mxCell>
        <mxCell id="KoHvZWCNIOONJqnG-pSO-118" value="SQL" style="text;align=center;fontStyle=1;verticalAlign=middle;spacingLeft=3;spacingRight=3;rotatable=0;points=[[0,0.5],[1,0.5]];portConstraint=eastwest;html=1;fillColor=none;" parent="1" vertex="1">
          <mxGeometry x="639" y="1062" width="35" height="26" as="geometry" />
        </mxCell>
        <mxCell id="KoHvZWCNIOONJqnG-pSO-119" value="JDBC" style="text;align=center;fontStyle=1;verticalAlign=middle;spacingLeft=3;spacingRight=3;rotatable=0;points=[[0,0.5],[1,0.5]];portConstraint=eastwest;html=1;fillColor=none;" parent="1" vertex="1">
          <mxGeometry x="630" y="932" width="44" height="26" as="geometry" />
        </mxCell>
        <mxCell id="KoHvZWCNIOONJqnG-pSO-120" value="JPA" style="text;align=center;fontStyle=1;verticalAlign=middle;spacingLeft=3;spacingRight=3;rotatable=0;points=[[0,0.5],[1,0.5]];portConstraint=eastwest;html=1;fillColor=none;" parent="1" vertex="1">
          <mxGeometry x="639" y="802" width="35" height="26" as="geometry" />
        </mxCell>
        <mxCell id="KoHvZWCNIOONJqnG-pSO-122" value="Persistence" style="text;align=center;fontStyle=1;verticalAlign=middle;spacingLeft=3;spacingRight=3;rotatable=0;points=[[0,0.5],[1,0.5]];portConstraint=eastwest;html=1;fillColor=none;" parent="1" vertex="1">
          <mxGeometry x="1540" y="719" width="80" height="26" as="geometry" />
        </mxCell>
        <mxCell id="KoHvZWCNIOONJqnG-pSO-123" value="Persistence" style="text;align=center;fontStyle=1;verticalAlign=middle;spacingLeft=3;spacingRight=3;rotatable=0;points=[[0,0.5],[1,0.5]];portConstraint=eastwest;html=1;fillColor=none;" parent="1" vertex="1">
          <mxGeometry x="1733" y="783" width="80" height="26" as="geometry" />
        </mxCell>
        <mxCell id="KoHvZWCNIOONJqnG-pSO-124" value="Persistence" style="text;align=center;fontStyle=1;verticalAlign=middle;spacingLeft=3;spacingRight=3;rotatable=0;points=[[0,0.5],[1,0.5]];portConstraint=eastwest;html=1;fillColor=none;" parent="1" vertex="1">
          <mxGeometry x="1734" y="910" width="80" height="26" as="geometry" />
        </mxCell>
        <mxCell id="KoHvZWCNIOONJqnG-pSO-126" value="NoSQL" style="text;align=center;fontStyle=1;verticalAlign=middle;spacingLeft=3;spacingRight=3;rotatable=0;points=[[0,0.5],[1,0.5]];portConstraint=eastwest;html=1;fillColor=none;" parent="1" vertex="1">
          <mxGeometry x="1673" y="932" width="35" height="26" as="geometry" />
        </mxCell>
        <mxCell id="KoHvZWCNIOONJqnG-pSO-127" value="Redis" style="text;align=center;fontStyle=1;verticalAlign=middle;spacingLeft=3;spacingRight=3;rotatable=0;points=[[0,0.5],[1,0.5]];portConstraint=eastwest;html=1;fillColor=none;" parent="1" vertex="1">
          <mxGeometry x="1403" y="932" width="35" height="26" as="geometry" />
        </mxCell>
        <mxCell id="KoHvZWCNIOONJqnG-pSO-128" value="Jedis" style="text;align=center;fontStyle=1;verticalAlign=middle;spacingLeft=3;spacingRight=3;rotatable=0;points=[[0,0.5],[1,0.5]];portConstraint=eastwest;html=1;fillColor=none;" parent="1" vertex="1">
          <mxGeometry x="1403" y="802" width="35" height="26" as="geometry" />
        </mxCell>
        <mxCell id="KoHvZWCNIOONJqnG-pSO-129" value="Jedis" style="text;align=center;fontStyle=1;verticalAlign=middle;spacingLeft=3;spacingRight=3;rotatable=0;points=[[0,0.5],[1,0.5]];portConstraint=eastwest;html=1;fillColor=none;" parent="1" vertex="1">
          <mxGeometry x="890" y="802" width="35" height="26" as="geometry" />
        </mxCell>
        <mxCell id="KoHvZWCNIOONJqnG-pSO-132" value="Redis" style="text;align=center;fontStyle=1;verticalAlign=middle;spacingLeft=3;spacingRight=3;rotatable=0;points=[[0,0.5],[1,0.5]];portConstraint=eastwest;html=1;fillColor=none;" parent="1" vertex="1">
          <mxGeometry x="890" y="932" width="35" height="26" as="geometry" />
        </mxCell>
        <mxCell id="KoHvZWCNIOONJqnG-pSO-133" value="«component»&lt;br&gt;&lt;b&gt;Notification System&lt;/b&gt;" style="html=1;dropTarget=0;whiteSpace=wrap;fillColor=#ffff88;strokeColor=#36393d;" parent="1" vertex="1">
          <mxGeometry x="1633" y="586" width="180" height="60" as="geometry" />
        </mxCell>
        <mxCell id="KoHvZWCNIOONJqnG-pSO-134" value="" style="shape=module;jettyWidth=8;jettyHeight=4;fillColor=#ffff88;strokeColor=#36393d;" parent="KoHvZWCNIOONJqnG-pSO-133" vertex="1">
          <mxGeometry x="1" width="20" height="20" relative="1" as="geometry">
            <mxPoint x="-27" y="7" as="offset" />
          </mxGeometry>
        </mxCell>
        <mxCell id="KoHvZWCNIOONJqnG-pSO-135" value="«component»&lt;br&gt;&lt;b&gt;AWS MSK&lt;/b&gt;" style="html=1;dropTarget=0;whiteSpace=wrap;fillColor=#ffff88;strokeColor=#36393d;" parent="1" vertex="1">
          <mxGeometry x="1360" y="586" width="180" height="60" as="geometry" />
        </mxCell>
        <mxCell id="KoHvZWCNIOONJqnG-pSO-136" value="" style="shape=module;jettyWidth=8;jettyHeight=4;fillColor=#ffff88;strokeColor=#36393d;" parent="KoHvZWCNIOONJqnG-pSO-135" vertex="1">
          <mxGeometry x="1" width="20" height="20" relative="1" as="geometry">
            <mxPoint x="-27" y="7" as="offset" />
          </mxGeometry>
        </mxCell>
        <mxCell id="KoHvZWCNIOONJqnG-pSO-158" value="" style="rounded=0;orthogonalLoop=1;jettySize=auto;html=1;endArrow=none;endFill=0;sketch=0;sourcePerimeterSpacing=0;targetPerimeterSpacing=0;exitX=0.5;exitY=0;exitDx=0;exitDy=0;fillColor=#ffff88;strokeColor=#36393d;" parent="1" source="KoHvZWCNIOONJqnG-pSO-15" target="KoHvZWCNIOONJqnG-pSO-160" edge="1">
          <mxGeometry relative="1" as="geometry">
            <mxPoint x="1360" y="664" as="sourcePoint" />
          </mxGeometry>
        </mxCell>
        <mxCell id="KoHvZWCNIOONJqnG-pSO-159" value="" style="rounded=0;orthogonalLoop=1;jettySize=auto;html=1;endArrow=halfCircle;endFill=0;entryX=0.5;entryY=0.5;endSize=6;strokeWidth=1;sketch=0;exitX=0.5;exitY=1;exitDx=0;exitDy=0;fillColor=#ffff88;strokeColor=#36393d;" parent="1" source="KoHvZWCNIOONJqnG-pSO-135" target="KoHvZWCNIOONJqnG-pSO-160" edge="1">
          <mxGeometry relative="1" as="geometry">
            <mxPoint x="1400" y="664" as="sourcePoint" />
          </mxGeometry>
        </mxCell>
        <mxCell id="KoHvZWCNIOONJqnG-pSO-160" value="" style="ellipse;whiteSpace=wrap;html=1;align=center;aspect=fixed;resizable=0;points=[];outlineConnect=0;sketch=0;fillColor=#ffff88;strokeColor=#36393d;" parent="1" vertex="1">
          <mxGeometry x="1445" y="684" width="10" height="10" as="geometry" />
        </mxCell>
        <mxCell id="KoHvZWCNIOONJqnG-pSO-161" value="" style="rounded=0;orthogonalLoop=1;jettySize=auto;html=1;endArrow=none;endFill=0;sketch=0;sourcePerimeterSpacing=0;targetPerimeterSpacing=0;exitX=0;exitY=0.5;exitDx=0;exitDy=0;fillColor=#ffff88;strokeColor=#36393d;" parent="1" source="KoHvZWCNIOONJqnG-pSO-133" target="KoHvZWCNIOONJqnG-pSO-163" edge="1">
          <mxGeometry relative="1" as="geometry">
            <mxPoint x="1560" y="655" as="sourcePoint" />
          </mxGeometry>
        </mxCell>
        <mxCell id="KoHvZWCNIOONJqnG-pSO-162" value="" style="rounded=0;orthogonalLoop=1;jettySize=auto;html=1;endArrow=halfCircle;endFill=0;entryX=0.5;entryY=0.5;endSize=6;strokeWidth=1;sketch=0;exitX=1;exitY=0.5;exitDx=0;exitDy=0;fillColor=#ffff88;strokeColor=#36393d;" parent="1" source="KoHvZWCNIOONJqnG-pSO-135" target="KoHvZWCNIOONJqnG-pSO-163" edge="1">
          <mxGeometry relative="1" as="geometry">
            <mxPoint x="1600" y="655" as="sourcePoint" />
          </mxGeometry>
        </mxCell>
        <mxCell id="KoHvZWCNIOONJqnG-pSO-163" value="" style="ellipse;whiteSpace=wrap;html=1;align=center;aspect=fixed;resizable=0;points=[];outlineConnect=0;sketch=0;fillColor=#ffff88;strokeColor=#36393d;" parent="1" vertex="1">
          <mxGeometry x="1583" y="611" width="10" height="10" as="geometry" />
        </mxCell>
        <mxCell id="KoHvZWCNIOONJqnG-pSO-164" value="Pub/Sub" style="text;align=center;fontStyle=1;verticalAlign=middle;spacingLeft=3;spacingRight=3;rotatable=0;points=[[0,0.5],[1,0.5]];portConstraint=eastwest;html=1;fillColor=none;" parent="1" vertex="1">
          <mxGeometry x="1540" y="580" width="80" height="26" as="geometry" />
        </mxCell>
        <mxCell id="KoHvZWCNIOONJqnG-pSO-165" value="Pub/Sub" style="text;align=center;fontStyle=1;verticalAlign=middle;spacingLeft=3;spacingRight=3;rotatable=0;points=[[0,0.5],[1,0.5]];portConstraint=eastwest;html=1;fillColor=none;" parent="1" vertex="1">
          <mxGeometry x="1365" y="646" width="80" height="26" as="geometry" />
        </mxCell>
        <mxCell id="KoHvZWCNIOONJqnG-pSO-166" value="«component»&lt;br&gt;&lt;b&gt;AWS SES&lt;/b&gt;" style="html=1;dropTarget=0;whiteSpace=wrap;fillColor=#ffff88;strokeColor=#36393d;" parent="1" vertex="1">
          <mxGeometry x="1943" y="526" width="180" height="60" as="geometry" />
        </mxCell>
        <mxCell id="KoHvZWCNIOONJqnG-pSO-167" value="" style="shape=module;jettyWidth=8;jettyHeight=4;fillColor=#ffff88;strokeColor=#36393d;" parent="KoHvZWCNIOONJqnG-pSO-166" vertex="1">
          <mxGeometry x="1" width="20" height="20" relative="1" as="geometry">
            <mxPoint x="-27" y="7" as="offset" />
          </mxGeometry>
        </mxCell>
        <mxCell id="KoHvZWCNIOONJqnG-pSO-168" value="«component»&lt;br&gt;&lt;b&gt;WhatsApp Service&lt;/b&gt;" style="html=1;dropTarget=0;whiteSpace=wrap;fillColor=#ffff88;strokeColor=#36393d;" parent="1" vertex="1">
          <mxGeometry x="1943" y="660" width="180" height="60" as="geometry" />
        </mxCell>
        <mxCell id="KoHvZWCNIOONJqnG-pSO-169" value="" style="shape=module;jettyWidth=8;jettyHeight=4;fillColor=#ffff88;strokeColor=#36393d;" parent="KoHvZWCNIOONJqnG-pSO-168" vertex="1">
          <mxGeometry x="1" width="20" height="20" relative="1" as="geometry">
            <mxPoint x="-27" y="7" as="offset" />
          </mxGeometry>
        </mxCell>
        <mxCell id="KoHvZWCNIOONJqnG-pSO-170" value="" style="rounded=0;orthogonalLoop=1;jettySize=auto;html=1;endArrow=none;endFill=0;sketch=0;sourcePerimeterSpacing=0;targetPerimeterSpacing=0;exitX=0;exitY=0.5;exitDx=0;exitDy=0;fillColor=#ffff88;strokeColor=#36393d;" parent="1" source="KoHvZWCNIOONJqnG-pSO-166" target="KoHvZWCNIOONJqnG-pSO-172" edge="1">
          <mxGeometry relative="1" as="geometry">
            <mxPoint x="1863" y="555" as="sourcePoint" />
          </mxGeometry>
        </mxCell>
        <mxCell id="KoHvZWCNIOONJqnG-pSO-171" value="" style="rounded=0;orthogonalLoop=1;jettySize=auto;html=1;endArrow=halfCircle;endFill=0;entryX=0.5;entryY=0.5;endSize=6;strokeWidth=1;sketch=0;exitX=1;exitY=0.5;exitDx=0;exitDy=0;fillColor=#ffff88;strokeColor=#36393d;" parent="1" source="KoHvZWCNIOONJqnG-pSO-133" target="KoHvZWCNIOONJqnG-pSO-172" edge="1">
          <mxGeometry relative="1" as="geometry">
            <mxPoint x="1903" y="555" as="sourcePoint" />
          </mxGeometry>
        </mxCell>
        <mxCell id="KoHvZWCNIOONJqnG-pSO-172" value="" style="ellipse;whiteSpace=wrap;html=1;align=center;aspect=fixed;resizable=0;points=[];outlineConnect=0;sketch=0;fillColor=#ffff88;strokeColor=#36393d;" parent="1" vertex="1">
          <mxGeometry x="1868" y="569" width="10" height="10" as="geometry" />
        </mxCell>
        <mxCell id="KoHvZWCNIOONJqnG-pSO-173" value="SMTP" style="text;align=center;fontStyle=1;verticalAlign=middle;spacingLeft=3;spacingRight=3;rotatable=0;points=[[0,0.5],[1,0.5]];portConstraint=eastwest;html=1;fillColor=none;" parent="1" vertex="1">
          <mxGeometry x="1833" y="538" width="45" height="26" as="geometry" />
        </mxCell>
        <mxCell id="KoHvZWCNIOONJqnG-pSO-177" value="" style="rounded=0;orthogonalLoop=1;jettySize=auto;html=1;endArrow=none;endFill=0;sketch=0;sourcePerimeterSpacing=0;targetPerimeterSpacing=0;exitX=0;exitY=0.5;exitDx=0;exitDy=0;fillColor=#ffff88;strokeColor=#36393d;" parent="1" source="KoHvZWCNIOONJqnG-pSO-168" target="KoHvZWCNIOONJqnG-pSO-179" edge="1">
          <mxGeometry relative="1" as="geometry">
            <mxPoint x="1833" y="667" as="sourcePoint" />
          </mxGeometry>
        </mxCell>
        <mxCell id="KoHvZWCNIOONJqnG-pSO-178" value="" style="rounded=0;orthogonalLoop=1;jettySize=auto;html=1;endArrow=halfCircle;endFill=0;endSize=6;strokeWidth=1;sketch=0;exitX=1;exitY=0.5;exitDx=0;exitDy=0;fillColor=#ffff88;strokeColor=#36393d;" parent="1" source="KoHvZWCNIOONJqnG-pSO-133" edge="1">
          <mxGeometry relative="1" as="geometry">
            <mxPoint x="1873" y="667" as="sourcePoint" />
            <mxPoint x="1873" y="659" as="targetPoint" />
          </mxGeometry>
        </mxCell>
        <mxCell id="KoHvZWCNIOONJqnG-pSO-179" value="" style="ellipse;whiteSpace=wrap;html=1;align=center;aspect=fixed;resizable=0;points=[];outlineConnect=0;sketch=0;fillColor=#ffff88;strokeColor=#36393d;" parent="1" vertex="1">
          <mxGeometry x="1868" y="654" width="10" height="10" as="geometry" />
        </mxCell>
        <mxCell id="KoHvZWCNIOONJqnG-pSO-180" value="HTTPS" style="text;align=center;fontStyle=1;verticalAlign=middle;spacingLeft=3;spacingRight=3;rotatable=0;points=[[0,0.5],[1,0.5]];portConstraint=eastwest;html=1;fillColor=none;" parent="1" vertex="1">
          <mxGeometry x="1843" y="672" width="45" height="26" as="geometry" />
        </mxCell>
        <mxCell id="KoHvZWCNIOONJqnG-pSO-181" value="«component»&lt;br&gt;&lt;b&gt;AWS Elastic Load Balancer&lt;/b&gt;" style="html=1;dropTarget=0;whiteSpace=wrap;fillColor=#ffff88;strokeColor=#36393d;" parent="1" vertex="1">
          <mxGeometry x="725" y="588" width="180" height="60" as="geometry" />
        </mxCell>
        <mxCell id="KoHvZWCNIOONJqnG-pSO-182" value="" style="shape=module;jettyWidth=8;jettyHeight=4;fillColor=#ffff88;strokeColor=#36393d;" parent="KoHvZWCNIOONJqnG-pSO-181" vertex="1">
          <mxGeometry x="1" width="20" height="20" relative="1" as="geometry">
            <mxPoint x="-27" y="7" as="offset" />
          </mxGeometry>
        </mxCell>
        <mxCell id="KoHvZWCNIOONJqnG-pSO-183" value="" style="rounded=0;orthogonalLoop=1;jettySize=auto;html=1;endArrow=none;endFill=0;sketch=0;sourcePerimeterSpacing=0;targetPerimeterSpacing=0;exitX=0.5;exitY=0;exitDx=0;exitDy=0;fillColor=#ffff88;strokeColor=#36393d;" parent="1" source="KoHvZWCNIOONJqnG-pSO-13" target="KoHvZWCNIOONJqnG-pSO-185" edge="1">
          <mxGeometry relative="1" as="geometry">
            <mxPoint x="695" y="689" as="sourcePoint" />
          </mxGeometry>
        </mxCell>
        <mxCell id="KoHvZWCNIOONJqnG-pSO-184" value="" style="rounded=0;orthogonalLoop=1;jettySize=auto;html=1;endArrow=halfCircle;endFill=0;entryX=0.5;entryY=0.5;endSize=6;strokeWidth=1;sketch=0;exitX=0.5;exitY=1;exitDx=0;exitDy=0;fillColor=#ffff88;strokeColor=#36393d;" parent="1" source="KoHvZWCNIOONJqnG-pSO-181" target="KoHvZWCNIOONJqnG-pSO-185" edge="1">
          <mxGeometry relative="1" as="geometry">
            <mxPoint x="735" y="689" as="sourcePoint" />
          </mxGeometry>
        </mxCell>
        <mxCell id="KoHvZWCNIOONJqnG-pSO-185" value="" style="ellipse;whiteSpace=wrap;html=1;align=center;aspect=fixed;resizable=0;points=[];outlineConnect=0;sketch=0;fillColor=#ffff88;strokeColor=#36393d;" parent="1" vertex="1">
          <mxGeometry x="685" y="682" width="10" height="10" as="geometry" />
        </mxCell>
        <mxCell id="KoHvZWCNIOONJqnG-pSO-186" value="HTTP/HTTPS" style="text;align=center;fontStyle=1;verticalAlign=middle;spacingLeft=3;spacingRight=3;rotatable=0;points=[[0,0.5],[1,0.5]];portConstraint=eastwest;html=1;fillColor=none;" parent="1" vertex="1">
          <mxGeometry x="620" y="668" width="35" height="26" as="geometry" />
        </mxCell>
        <mxCell id="KoHvZWCNIOONJqnG-pSO-193" value="" style="rounded=0;orthogonalLoop=1;jettySize=auto;html=1;endArrow=none;endFill=0;sketch=0;sourcePerimeterSpacing=0;targetPerimeterSpacing=0;exitX=0.5;exitY=0;exitDx=0;exitDy=0;fillColor=#ffff88;strokeColor=#36393d;" parent="1" source="KoHvZWCNIOONJqnG-pSO-11" target="KoHvZWCNIOONJqnG-pSO-195" edge="1">
          <mxGeometry relative="1" as="geometry">
            <mxPoint x="935" y="690" as="sourcePoint" />
          </mxGeometry>
        </mxCell>
        <mxCell id="KoHvZWCNIOONJqnG-pSO-194" value="" style="rounded=0;orthogonalLoop=1;jettySize=auto;html=1;endArrow=halfCircle;endFill=0;entryX=0.5;entryY=0.5;endSize=6;strokeWidth=1;sketch=0;exitX=0.5;exitY=1;exitDx=0;exitDy=0;fillColor=#ffff88;strokeColor=#36393d;" parent="1" source="KoHvZWCNIOONJqnG-pSO-181" target="KoHvZWCNIOONJqnG-pSO-195" edge="1">
          <mxGeometry relative="1" as="geometry">
            <mxPoint x="940" y="646" as="sourcePoint" />
          </mxGeometry>
        </mxCell>
        <mxCell id="KoHvZWCNIOONJqnG-pSO-195" value="" style="ellipse;whiteSpace=wrap;html=1;align=center;aspect=fixed;resizable=0;points=[];outlineConnect=0;sketch=0;fillColor=#ffff88;strokeColor=#36393d;" parent="1" vertex="1">
          <mxGeometry x="935" y="684" width="10" height="10" as="geometry" />
        </mxCell>
        <mxCell id="KoHvZWCNIOONJqnG-pSO-196" value="HTTP/HTTPS" style="text;align=center;fontStyle=1;verticalAlign=middle;spacingLeft=3;spacingRight=3;rotatable=0;points=[[0,0.5],[1,0.5]];portConstraint=eastwest;html=1;fillColor=none;" parent="1" vertex="1">
          <mxGeometry x="970" y="664" width="35" height="26" as="geometry" />
        </mxCell>
        <mxCell id="6_ytdUA_Tm2HFR9p67Ka-1" value="«component»&lt;br&gt;&lt;b&gt;AWS S3&lt;/b&gt;" style="html=1;dropTarget=0;whiteSpace=wrap;fillColor=#ffff88;strokeColor=#36393d;" parent="1" vertex="1">
          <mxGeometry x="740" y="280" width="180" height="60" as="geometry" />
        </mxCell>
        <mxCell id="6_ytdUA_Tm2HFR9p67Ka-2" value="" style="shape=module;jettyWidth=8;jettyHeight=4;fillColor=#ffff88;strokeColor=#36393d;" parent="6_ytdUA_Tm2HFR9p67Ka-1" vertex="1">
          <mxGeometry x="1" width="20" height="20" relative="1" as="geometry">
            <mxPoint x="-27" y="7" as="offset" />
          </mxGeometry>
        </mxCell>
        <mxCell id="6_ytdUA_Tm2HFR9p67Ka-3" value="" style="rounded=0;orthogonalLoop=1;jettySize=auto;html=1;endArrow=none;endFill=0;sketch=0;sourcePerimeterSpacing=0;targetPerimeterSpacing=0;exitX=1;exitY=0.5;exitDx=0;exitDy=0;" parent="1" source="6_ytdUA_Tm2HFR9p67Ka-1" target="6_ytdUA_Tm2HFR9p67Ka-5" edge="1">
          <mxGeometry relative="1" as="geometry">
            <mxPoint x="920" y="325" as="sourcePoint" />
            <Array as="points" />
          </mxGeometry>
        </mxCell>
        <mxCell id="6_ytdUA_Tm2HFR9p67Ka-4" value="" style="rounded=0;orthogonalLoop=1;jettySize=auto;html=1;endArrow=halfCircle;endFill=0;entryX=0.5;entryY=0.5;endSize=6;strokeWidth=1;sketch=0;exitX=0;exitY=0.5;exitDx=0;exitDy=0;" parent="1" source="KoHvZWCNIOONJqnG-pSO-6" target="6_ytdUA_Tm2HFR9p67Ka-5" edge="1">
          <mxGeometry relative="1" as="geometry">
            <mxPoint x="960" y="325" as="sourcePoint" />
          </mxGeometry>
        </mxCell>
        <mxCell id="6_ytdUA_Tm2HFR9p67Ka-5" value="" style="ellipse;whiteSpace=wrap;html=1;align=center;aspect=fixed;resizable=0;points=[];outlineConnect=0;sketch=0;fillColor=#ffff88;strokeColor=#36393d;" parent="1" vertex="1">
          <mxGeometry x="1030" y="305" width="10" height="10" as="geometry" />
        </mxCell>
        <mxCell id="6_ytdUA_Tm2HFR9p67Ka-6" value="HTTP/HTTPS" style="text;align=center;fontStyle=1;verticalAlign=middle;spacingLeft=3;spacingRight=3;rotatable=0;points=[[0,0.5],[1,0.5]];portConstraint=eastwest;html=1;fillColor=none;" parent="1" vertex="1">
          <mxGeometry x="1017.5" y="325" width="35" height="26" as="geometry" />
        </mxCell>
        <mxCell id="6_ytdUA_Tm2HFR9p67Ka-7" value="Static Content" style="text;align=center;fontStyle=1;verticalAlign=middle;spacingLeft=3;spacingRight=3;rotatable=0;points=[[0,0.5],[1,0.5]];portConstraint=eastwest;html=1;fillColor=none;" parent="1" vertex="1">
          <mxGeometry x="925" y="289" width="80" height="26" as="geometry" />
        </mxCell>
        <mxCell id="6_ytdUA_Tm2HFR9p67Ka-8" value="«component»&lt;br&gt;&lt;b&gt;OAuth0&lt;/b&gt;" style="html=1;dropTarget=0;whiteSpace=wrap;fillColor=#ffff88;strokeColor=#36393d;" parent="1" vertex="1">
          <mxGeometry x="380" y="719" width="180" height="60" as="geometry" />
        </mxCell>
        <mxCell id="6_ytdUA_Tm2HFR9p67Ka-9" value="" style="shape=module;jettyWidth=8;jettyHeight=4;fillColor=#ffff88;strokeColor=#36393d;" parent="6_ytdUA_Tm2HFR9p67Ka-8" vertex="1">
          <mxGeometry x="1" width="20" height="20" relative="1" as="geometry">
            <mxPoint x="-27" y="7" as="offset" />
          </mxGeometry>
        </mxCell>
        <mxCell id="6_ytdUA_Tm2HFR9p67Ka-10" value="" style="rounded=0;orthogonalLoop=1;jettySize=auto;html=1;endArrow=none;endFill=0;sketch=0;sourcePerimeterSpacing=0;targetPerimeterSpacing=0;exitX=0.5;exitY=0;exitDx=0;exitDy=0;" parent="1" source="6_ytdUA_Tm2HFR9p67Ka-8" target="6_ytdUA_Tm2HFR9p67Ka-12" edge="1">
          <mxGeometry relative="1" as="geometry">
            <mxPoint x="440" y="669" as="sourcePoint" />
          </mxGeometry>
        </mxCell>
        <mxCell id="6_ytdUA_Tm2HFR9p67Ka-11" value="" style="rounded=0;orthogonalLoop=1;jettySize=auto;html=1;endArrow=halfCircle;endFill=0;entryX=0.5;entryY=0.5;endSize=6;strokeWidth=1;sketch=0;exitX=0.5;exitY=1;exitDx=0;exitDy=0;" parent="1" source="KoHvZWCNIOONJqnG-pSO-99" target="6_ytdUA_Tm2HFR9p67Ka-12" edge="1">
          <mxGeometry relative="1" as="geometry">
            <mxPoint x="480" y="669" as="sourcePoint" />
          </mxGeometry>
        </mxCell>
        <mxCell id="6_ytdUA_Tm2HFR9p67Ka-12" value="" style="ellipse;whiteSpace=wrap;html=1;align=center;aspect=fixed;resizable=0;points=[];outlineConnect=0;sketch=0;fillColor=#ffff88;strokeColor=#36393d;" parent="1" vertex="1">
          <mxGeometry x="465" y="674" width="10" height="10" as="geometry" />
        </mxCell>
        <mxCell id="6_ytdUA_Tm2HFR9p67Ka-13" value="IDP" style="text;align=center;fontStyle=1;verticalAlign=middle;spacingLeft=3;spacingRight=3;rotatable=0;points=[[0,0.5],[1,0.5]];portConstraint=eastwest;html=1;fillColor=none;" parent="1" vertex="1">
          <mxGeometry x="490" y="666" width="35" height="26" as="geometry" />
        </mxCell>
        <mxCell id="6_ytdUA_Tm2HFR9p67Ka-14" value="" style="rounded=0;orthogonalLoop=1;jettySize=auto;html=1;endArrow=none;endFill=0;sketch=0;sourcePerimeterSpacing=0;targetPerimeterSpacing=0;exitX=0.5;exitY=0;exitDx=0;exitDy=0;" parent="1" source="KoHvZWCNIOONJqnG-pSO-99" target="6_ytdUA_Tm2HFR9p67Ka-16" edge="1">
          <mxGeometry relative="1" as="geometry">
            <mxPoint x="450" y="543" as="sourcePoint" />
          </mxGeometry>
        </mxCell>
        <mxCell id="6_ytdUA_Tm2HFR9p67Ka-15" value="" style="rounded=0;orthogonalLoop=1;jettySize=auto;html=1;endArrow=halfCircle;endFill=0;entryX=0.5;entryY=0.5;endSize=6;strokeWidth=1;sketch=0;exitX=0.066;exitY=1.043;exitDx=0;exitDy=0;exitPerimeter=0;" parent="1" source="KoHvZWCNIOONJqnG-pSO-4" target="6_ytdUA_Tm2HFR9p67Ka-16" edge="1">
          <mxGeometry relative="1" as="geometry">
            <mxPoint x="490" y="543" as="sourcePoint" />
          </mxGeometry>
        </mxCell>
        <mxCell id="6_ytdUA_Tm2HFR9p67Ka-16" value="" style="ellipse;whiteSpace=wrap;html=1;align=center;aspect=fixed;resizable=0;points=[];outlineConnect=0;sketch=0;fillColor=#ffff88;strokeColor=#36393d;" parent="1" vertex="1">
          <mxGeometry x="465" y="538" width="10" height="10" as="geometry" />
        </mxCell>
        <mxCell id="6_ytdUA_Tm2HFR9p67Ka-17" value="IDP" style="text;align=center;fontStyle=1;verticalAlign=middle;spacingLeft=3;spacingRight=3;rotatable=0;points=[[0,0.5],[1,0.5]];portConstraint=eastwest;html=1;fillColor=none;" parent="1" vertex="1">
          <mxGeometry x="490" y="530" width="35" height="26" as="geometry" />
        </mxCell>
        <mxCell id="6_ytdUA_Tm2HFR9p67Ka-18" value="Authorization" style="text;align=center;fontStyle=1;verticalAlign=middle;spacingLeft=3;spacingRight=3;rotatable=0;points=[[0,0.5],[1,0.5]];portConstraint=eastwest;html=1;fillColor=none;" parent="1" vertex="1">
          <mxGeometry x="400" y="648" width="35" height="26" as="geometry" />
        </mxCell>
        <mxCell id="6_ytdUA_Tm2HFR9p67Ka-20" value="Authorization" style="text;align=center;fontStyle=1;verticalAlign=middle;spacingLeft=3;spacingRight=3;rotatable=0;points=[[0,0.5],[1,0.5]];portConstraint=eastwest;html=1;fillColor=none;" parent="1" vertex="1">
          <mxGeometry x="400" y="500" width="35" height="26" as="geometry" />
        </mxCell>
        <mxCell id="ZIs2nuzUOYdVChLdZ8yL-1" value="Listener" style="text;align=center;fontStyle=1;verticalAlign=middle;spacingLeft=3;spacingRight=3;rotatable=0;points=[[0,0.5],[1,0.5]];portConstraint=eastwest;html=1;fillColor=none;" parent="1" vertex="1">
          <mxGeometry x="865" y="646" width="80" height="26" as="geometry" />
        </mxCell>
        <mxCell id="ZIs2nuzUOYdVChLdZ8yL-2" value="Listener" style="text;align=center;fontStyle=1;verticalAlign=middle;spacingLeft=3;spacingRight=3;rotatable=0;points=[[0,0.5],[1,0.5]];portConstraint=eastwest;html=1;fillColor=none;" parent="1" vertex="1">
          <mxGeometry x="695" y="646" width="80" height="26" as="geometry" />
        </mxCell>
        <mxCell id="oXxh1dGLwAiDaxNOXCCr-1" value="«component»&lt;br&gt;&lt;b&gt;Quote System&lt;/b&gt;" style="html=1;dropTarget=0;whiteSpace=wrap;fillColor=#ffff88;strokeColor=#36393d;" vertex="1" parent="1">
          <mxGeometry x="1110" y="719" width="180" height="60" as="geometry" />
        </mxCell>
        <mxCell id="oXxh1dGLwAiDaxNOXCCr-2" value="" style="shape=module;jettyWidth=8;jettyHeight=4;fillColor=#ffff88;strokeColor=#36393d;" vertex="1" parent="oXxh1dGLwAiDaxNOXCCr-1">
          <mxGeometry x="1" width="20" height="20" relative="1" as="geometry">
            <mxPoint x="-27" y="7" as="offset" />
          </mxGeometry>
        </mxCell>
        <mxCell id="oXxh1dGLwAiDaxNOXCCr-3" value="«component»&lt;br&gt;&lt;b&gt;AWS Elastic Load Balancer&lt;/b&gt;" style="html=1;dropTarget=0;whiteSpace=wrap;fillColor=#ffff88;strokeColor=#36393d;" vertex="1" parent="1">
          <mxGeometry x="1110" y="586" width="180" height="60" as="geometry" />
        </mxCell>
        <mxCell id="oXxh1dGLwAiDaxNOXCCr-4" value="" style="shape=module;jettyWidth=8;jettyHeight=4;fillColor=#ffff88;strokeColor=#36393d;" vertex="1" parent="oXxh1dGLwAiDaxNOXCCr-3">
          <mxGeometry x="1" width="20" height="20" relative="1" as="geometry">
            <mxPoint x="-27" y="7" as="offset" />
          </mxGeometry>
        </mxCell>
        <mxCell id="oXxh1dGLwAiDaxNOXCCr-7" value="" style="rounded=0;orthogonalLoop=1;jettySize=auto;html=1;endArrow=none;endFill=0;sketch=0;sourcePerimeterSpacing=0;targetPerimeterSpacing=0;exitX=0.5;exitY=0;exitDx=0;exitDy=0;fillColor=#ffff88;strokeColor=#36393d;" edge="1" parent="1" target="oXxh1dGLwAiDaxNOXCCr-8">
          <mxGeometry relative="1" as="geometry">
            <mxPoint x="1200" y="719" as="sourcePoint" />
          </mxGeometry>
        </mxCell>
        <mxCell id="oXxh1dGLwAiDaxNOXCCr-8" value="" style="ellipse;whiteSpace=wrap;html=1;align=center;aspect=fixed;resizable=0;points=[];outlineConnect=0;sketch=0;fillColor=#ffff88;strokeColor=#36393d;" vertex="1" parent="1">
          <mxGeometry x="1195" y="683" width="10" height="10" as="geometry" />
        </mxCell>
        <mxCell id="oXxh1dGLwAiDaxNOXCCr-9" value="" style="rounded=0;orthogonalLoop=1;jettySize=auto;html=1;endArrow=halfCircle;endFill=0;entryX=0.5;entryY=0.5;endSize=6;strokeWidth=1;sketch=0;fillColor=#ffff88;strokeColor=#36393d;exitX=0.5;exitY=1;exitDx=0;exitDy=0;" edge="1" parent="1" source="oXxh1dGLwAiDaxNOXCCr-3">
          <mxGeometry relative="1" as="geometry">
            <mxPoint x="1200.18" y="654" as="sourcePoint" />
            <mxPoint x="1199.8100000000002" y="688" as="targetPoint" />
          </mxGeometry>
        </mxCell>
        <mxCell id="oXxh1dGLwAiDaxNOXCCr-10" value="Use" style="endArrow=open;endSize=12;dashed=1;html=1;rounded=0;entryX=0.5;entryY=0;entryDx=0;entryDy=0;exitX=0.256;exitY=1.062;exitDx=0;exitDy=0;exitPerimeter=0;fillColor=#ffff88;strokeColor=#36393d;" edge="1" parent="1">
          <mxGeometry width="160" relative="1" as="geometry">
            <mxPoint x="1199" y="503" as="sourcePoint" />
            <mxPoint x="1201" y="588" as="targetPoint" />
          </mxGeometry>
        </mxCell>
        <mxCell id="oXxh1dGLwAiDaxNOXCCr-11" value="«component»&lt;br&gt;&lt;b&gt;Spring Data MongoDB&lt;/b&gt;" style="html=1;dropTarget=0;whiteSpace=wrap;fillColor=#ffff88;strokeColor=#36393d;" vertex="1" parent="1">
          <mxGeometry x="1110" y="850" width="180" height="60" as="geometry" />
        </mxCell>
        <mxCell id="oXxh1dGLwAiDaxNOXCCr-12" value="" style="shape=module;jettyWidth=8;jettyHeight=4;fillColor=#ffff88;strokeColor=#36393d;" vertex="1" parent="oXxh1dGLwAiDaxNOXCCr-11">
          <mxGeometry x="1" width="20" height="20" relative="1" as="geometry">
            <mxPoint x="-27" y="7" as="offset" />
          </mxGeometry>
        </mxCell>
        <mxCell id="oXxh1dGLwAiDaxNOXCCr-13" value="«component»&lt;br&gt;&lt;b&gt;AWS DocumentDB&lt;/b&gt;" style="html=1;dropTarget=0;whiteSpace=wrap;fillColor=#ffff88;strokeColor=#36393d;" vertex="1" parent="1">
          <mxGeometry x="1110" y="980" width="180" height="60" as="geometry" />
        </mxCell>
        <mxCell id="oXxh1dGLwAiDaxNOXCCr-14" value="" style="shape=module;jettyWidth=8;jettyHeight=4;fillColor=#ffff88;strokeColor=#36393d;" vertex="1" parent="oXxh1dGLwAiDaxNOXCCr-13">
          <mxGeometry x="1" width="20" height="20" relative="1" as="geometry">
            <mxPoint x="-27" y="7" as="offset" />
          </mxGeometry>
        </mxCell>
        <mxCell id="oXxh1dGLwAiDaxNOXCCr-16" value="" style="ellipse;whiteSpace=wrap;html=1;align=center;aspect=fixed;resizable=0;points=[];outlineConnect=0;sketch=0;fillColor=#ffff88;strokeColor=#36393d;" vertex="1" parent="1">
          <mxGeometry x="1195" y="940" width="10" height="10" as="geometry" />
        </mxCell>
        <mxCell id="oXxh1dGLwAiDaxNOXCCr-18" value="" style="rounded=0;orthogonalLoop=1;jettySize=auto;html=1;endArrow=none;endFill=0;sketch=0;sourcePerimeterSpacing=0;targetPerimeterSpacing=0;exitX=0.5;exitY=0;exitDx=0;exitDy=0;fillColor=#ffff88;strokeColor=#36393d;" edge="1" parent="1">
          <mxGeometry relative="1" as="geometry">
            <mxPoint x="1199.74" y="980" as="sourcePoint" />
            <mxPoint x="1199.74" y="950" as="targetPoint" />
          </mxGeometry>
        </mxCell>
        <mxCell id="oXxh1dGLwAiDaxNOXCCr-19" value="" style="rounded=0;orthogonalLoop=1;jettySize=auto;html=1;endArrow=halfCircle;endFill=0;entryX=0.5;entryY=0.5;endSize=6;strokeWidth=1;sketch=0;exitX=0.5;exitY=1;exitDx=0;exitDy=0;fillColor=#ffff88;strokeColor=#36393d;" edge="1" parent="1">
          <mxGeometry relative="1" as="geometry">
            <mxPoint x="1199.74" y="910" as="sourcePoint" />
            <mxPoint x="1199.74" y="945" as="targetPoint" />
          </mxGeometry>
        </mxCell>
        <mxCell id="oXxh1dGLwAiDaxNOXCCr-20" value="Persistence" style="text;align=center;fontStyle=1;verticalAlign=middle;spacingLeft=3;spacingRight=3;rotatable=0;points=[[0,0.5],[1,0.5]];portConstraint=eastwest;html=1;fillColor=none;" vertex="1" parent="1">
          <mxGeometry x="1205" y="910" width="80" height="26" as="geometry" />
        </mxCell>
        <mxCell id="oXxh1dGLwAiDaxNOXCCr-21" value="" style="ellipse;whiteSpace=wrap;html=1;align=center;aspect=fixed;resizable=0;points=[];outlineConnect=0;sketch=0;fillColor=#ffff88;strokeColor=#36393d;" vertex="1" parent="1">
          <mxGeometry x="1195" y="810" width="10" height="10" as="geometry" />
        </mxCell>
        <mxCell id="oXxh1dGLwAiDaxNOXCCr-22" value="" style="rounded=0;orthogonalLoop=1;jettySize=auto;html=1;endArrow=none;endFill=0;sketch=0;sourcePerimeterSpacing=0;targetPerimeterSpacing=0;exitX=0.5;exitY=0;exitDx=0;exitDy=0;fillColor=#ffff88;strokeColor=#36393d;" edge="1" parent="1" source="oXxh1dGLwAiDaxNOXCCr-11" target="oXxh1dGLwAiDaxNOXCCr-21">
          <mxGeometry relative="1" as="geometry">
            <mxPoint x="1200.5" y="850" as="sourcePoint" />
            <mxPoint x="1199.5" y="820" as="targetPoint" />
          </mxGeometry>
        </mxCell>
        <mxCell id="oXxh1dGLwAiDaxNOXCCr-23" value="" style="rounded=0;orthogonalLoop=1;jettySize=auto;html=1;endArrow=halfCircle;endFill=0;entryX=0.5;entryY=0.5;endSize=6;strokeWidth=1;sketch=0;exitX=0.5;exitY=1;exitDx=0;exitDy=0;fillColor=#ffff88;strokeColor=#36393d;" edge="1" parent="1">
          <mxGeometry relative="1" as="geometry">
            <mxPoint x="1199.79" y="778.5" as="sourcePoint" />
            <mxPoint x="1199.79" y="813.5" as="targetPoint" />
          </mxGeometry>
        </mxCell>
        <mxCell id="oXxh1dGLwAiDaxNOXCCr-24" value="Persistence" style="text;align=center;fontStyle=1;verticalAlign=middle;spacingLeft=3;spacingRight=3;rotatable=0;points=[[0,0.5],[1,0.5]];portConstraint=eastwest;html=1;fillColor=none;" vertex="1" parent="1">
          <mxGeometry x="1210" y="779" width="80" height="26" as="geometry" />
        </mxCell>
        <mxCell id="oXxh1dGLwAiDaxNOXCCr-25" value="Use" style="endArrow=open;endSize=12;dashed=1;html=1;rounded=0;entryX=0.366;entryY=1.04;entryDx=0;entryDy=0;exitX=0.897;exitY=-0.036;exitDx=0;exitDy=0;exitPerimeter=0;fillColor=#ffff88;strokeColor=#36393d;entryPerimeter=0;" edge="1" parent="1" source="KoHvZWCNIOONJqnG-pSO-11" target="KoHvZWCNIOONJqnG-pSO-4">
          <mxGeometry width="160" relative="1" as="geometry">
            <mxPoint x="1023" y="609" as="sourcePoint" />
            <mxPoint x="1025" y="694" as="targetPoint" />
          </mxGeometry>
        </mxCell>
      </root>
    </mxGraphModel>
  </diagram>
</mxfile>
